<?xml version="1.0" encoding="utf-8"?>
<!-- Generator: Adobe Illustrator 16.0.0, SVG Export Plug-In . SVG Version: 6.00 Build 0)  -->
<!DOCTYPE svg PUBLIC "-//W3C//DTD SVG 1.1//EN" "http://www.w3.org/Graphics/SVG/1.1/DTD/svg11.dtd">
<svg version="1.1" id="Layer_1" xmlns="http://www.w3.org/2000/svg" xmlns:xlink="http://www.w3.org/1999/xlink" x="0px" y="0px"
	 width="50px" height="50px" viewBox="0 0 50 50" enable-background="new 0 0 50 50" xml:space="preserve">
<g>
	<circle fill="none" cx="25.023" cy="24.798" r="21.346"/>
	<path fill="#378BCC" d="M25.023,3.454c11.788,0,21.346,9.556,21.346,21.344c0,11.79-9.558,21.346-21.346,21.346
		c-11.789,0-21.346-9.557-21.346-21.346C3.678,13.01,13.234,3.454,25.023,3.454 M25.023,2.109c-6.061,0-11.759,2.36-16.044,6.646
		c-4.286,4.286-6.646,9.984-6.646,16.043c0,6.061,2.36,11.76,6.646,16.043c4.285,4.287,9.983,6.646,16.044,6.646
		c6.06,0,11.758-2.359,16.044-6.646c4.284-4.283,6.646-9.982,6.646-16.043c0-6.06-2.361-11.758-6.646-16.043
		C36.781,4.47,31.083,2.109,25.023,2.109L25.023,2.109z"/>
</g>
<rect x="11.465" y="14.099" fill="#378BCC" width="27.116" height="20.841"/>
<rect x="13.258" y="15.667" fill="#FFFFFF" width="21.681" height="6.611"/>
<rect x="13.258" y="24.152" fill="#FFFFFF" width="18.497" height="1.875"/>
<rect x="13.258" y="27.057" fill="#FFFFFF" width="11.765" height="1.258"/>
<rect x="13.258" y="29.535" fill="#FFFFFF" width="11.765" height="1.26"/>
<rect x="13.258" y="31.881" fill="#FFFFFF" width="15.246" height="1.258"/>
</svg>
