<?xml version="1.0" encoding="utf-8"?>
<!-- Generator: Adobe Illustrator 16.0.0, SVG Export Plug-In . SVG Version: 6.00 Build 0)  -->
<!DOCTYPE svg PUBLIC "-//W3C//DTD SVG 1.1//EN" "http://www.w3.org/Graphics/SVG/1.1/DTD/svg11.dtd">
<svg version="1.1" id="Layer_1" xmlns="http://www.w3.org/2000/svg" xmlns:xlink="http://www.w3.org/1999/xlink" x="0px" y="0px"
	 width="100px" height="100px" viewBox="0 0 100 100" enable-background="new 0 0 100 100" xml:space="preserve">
<g>
	
		<line fill="none" stroke="#4675B8" stroke-width="0.0712" stroke-miterlimit="10" x1="34.296" y1="48.133" x2="34.296" y2="48.133"/>
	<g>
		<g>
			<path fill="#FFFFFF" d="M8.454,44.37v-0.895l-0.642-0.641h-2.06l-0.659,0.641v0.811H2.425v-1.908l2.212-2.229h4.272l2.212,2.229
				v3.327L5.093,50.18v0.675h6.028v2.666H2.425v-4.692L8.454,44.37z"/>
		</g>
		<g>
			<path fill="#FFFFFF" d="M21.523,42.361v8.952l-2.212,2.209h-4.289l-2.212-2.209v-8.952l2.212-2.212h4.289L21.523,42.361z
				 M15.495,43.475v6.721l0.641,0.66h2.06l0.642-0.66v-6.721l-0.642-0.641h-2.06L15.495,43.475z"/>
		</g>
		<g>
			<path fill="#FFFFFF" d="M86.721,53.521h-2.668V44.1h-1.098v-1.571l0.102-0.033c0.598-0.158,1.055-0.442,1.377-0.853
				c0.32-0.411,0.521-0.864,0.599-1.359l0.018-0.135h1.673v13.373H86.721z"/>
		</g>
		<g>
			<path fill="#FFFFFF" d="M96.145,49.116h1.014v2.667h-1.014v1.738h-2.686v-1.738h-3.936l-1.115-2.533l4.779-9.102h2.957V49.116
				L96.145,49.116z M93.459,45.383L91.5,49.116h1.959V45.383z"/>
		</g>
	</g>
	<circle fill="none" stroke="#FFFFFF" stroke-width="2.1375" stroke-miterlimit="10" cx="52.041" cy="45.026" r="29.977"/>
	<g>
		<path fill="#FFFFFF" d="M51.672,39.041l8.387-4.765c-0.147-0.928-0.854-4.378-2.091-6.627c-0.261-0.412-0.557-0.804-0.885-1.164
			c-1.528-0.723-3.249-1.089-5.112-1.089c-0.98,0-1.885,0.103-2.651,0.239c-0.793,0.145-1.59,0.354-2.387,0.626
			c-0.442,0.57-3.136,4.181-3.61,8.04L51.672,39.041z"/>
		<path fill="#FFFFFF" d="M76.467,40.316c-0.824-1.707-1.713-2.679-2.047-2.9c-0.424,0.332-1.523,0.973-2.635,1.593
			c-0.666,0.385-1.662,0.952-2.299,1.254c-0.014,0.007-0.027,0.015-0.041,0.022c0.131,0.541,0.412,1.822,0.557,3.428
			c0.246,2.691,0,4.958-0.723,6.747c0.414,0.157,0.854,0.372,1.294,0.621c1.747,0.94,3.257,2.207,3.815,2.698
			c2.811-2.322,3.356-6.642,3.361-6.687C78.032,44.272,77.208,41.85,76.467,40.316z"/>
		<path fill="#FFFFFF" d="M68.661,40.28c-0.474-0.564-1.781-1.995-3.913-3.365c-0.375-0.228-0.777-0.456-1.212-0.686
			c-1.253-0.661-2.341-1.102-2.868-1.301c-0.064-0.023-0.129-0.046-0.195-0.068l-8.443,4.798l0.027,10.546
			c0.035,0.033,0.076,0.068,0.121,0.106c1.176,0.866,5.312,3.418,8.045,5.065c1.119-0.332,2.123-0.734,3.018-1.164
			c1.837-0.891,3.232-1.919,4.128-2.677c0.631-0.546,1.012-0.958,1.142-1.107c0.108-0.295,0.401-1.199,0.581-2.623
			c0.202-1.59,0.298-4.166-0.373-7.46C68.695,40.322,68.678,40.299,68.661,40.28z"/>
		<path fill="#FFFFFF" d="M34.004,50.147c-0.359-0.935-1.262-4.077-0.095-9.882c-0.399-0.27-1.322-0.906-2.257-1.637
			c-0.77-0.588-1.501-1.191-1.885-1.625c-0.289,0.234-0.784,0.702-1.298,1.485c-1.34,2.042-1.774,4.617-1.903,6.418l-0.006,0.09
			c0,0.61,0.122,5.372,3.098,7.99L34.004,50.147z"/>
		<path fill="#FFFFFF" d="M57.941,25.997c-0.049,0.05-0.09,0.096-0.129,0.138c0.267,0.319,0.522,0.704,0.771,1.15
			c1.696,2.667,2.112,5.994,2.198,6.919c1.73,0.591,3.205,1.36,4.42,2.146c1.396,0.855,2.842,1.955,3.918,3.286
			c0.079-0.036,0.167-0.078,0.263-0.125c0.769-0.414,1.543-0.838,2.235-1.226c1.057-0.612,2.068-1.225,2.363-1.432
			c1.086-4.254-2.64-8.041-2.676-8.079l-0.033-0.033L71.25,28.7c-1.053-1.817-5.814-5.196-8.473-5.196
			c-0.135,0-0.26,0.009-0.377,0.026c-0.049,0.008-0.101,0.017-0.148,0.026c-0.363,0.076-0.707,0.177-1.033,0.294
			C59.766,24.406,58.527,25.448,57.941,25.997z"/>
		<path fill="#FFFFFF" d="M59.794,55.952c-1.265-0.739-6.583-3.872-8.063-5.093c-0.068-0.053-0.127-0.098-0.176-0.137
			c-0.936,0.678-4.446,3.164-8.071,5.176c0.035,0.973,0.189,1.955,0.457,2.934c0.725,2.375,2.068,4.5,2.507,5.158
			c0.029,0.041,0.059,0.084,0.089,0.126c0.195,0.097,0.402,0.185,0.622,0.263c0.679,0.232,1.893,0.521,3.725,0.525
			c1.874-0.006,3.722-0.307,4.882-0.539c0.355-0.074,0.717-0.156,1.084-0.244c0.307-0.447,1.525-2.322,2.322-5.061
			c0.332-1.18,0.502-2.175,0.581-2.762C59.768,56.184,59.781,56.068,59.794,55.952z"/>
		<path fill="#FFFFFF" d="M47.135,70.773c1.342,0.146,2.841,0.22,4.456,0.22c2.499,0,4.466-0.181,4.663-0.198
			c1.389-0.271,3.678-0.77,4.208-1.014l1.249-1.637c-0.014-0.006-0.027-0.015-0.043-0.021c-1.027-0.436-1.896-0.947-2.604-1.441
			c-0.789-0.523-1.572-1.148-2.138-1.844c-0.319,0.079-0.946,0.225-1.76,0.367c-1.519,0.273-2.94,0.411-4.249,0.411
			c-0.001,0-0.001,0-0.001,0c-0.015,0-0.028,0-0.043,0c-0.017,0-0.035,0-0.054,0l0,0c-1.49,0-2.764-0.177-3.806-0.533
			c-0.263-0.086-0.464-0.168-0.611-0.233c-0.666,0.769-1.832,1.486-2.853,2.021c-0.552,0.342-1.11,0.639-1.604,0.812
			c0.163,0.293,0.454,0.74,0.918,1.201C43.936,69.947,45.372,70.583,47.135,70.773z"/>
		<path fill="#FFFFFF" d="M34.959,40.42c-0.221,0.889-1.418,6.133,0.15,9.789c0.195,0.22,0.875,0.948,2.022,1.803
			c1.22,0.909,3.227,2.15,5.944,2.979c0.592-0.349,2.092-1.233,3.639-2.181c2.838-1.737,3.854-2.472,4.218-2.77l0.025-10.176
			l-8.126-4.615C41.652,35.695,37.235,37.509,34.959,40.42z"/>
		<path fill="#FFFFFF" d="M33.075,62.104c0.059,0.072,1.017,1.203,2.5,2.365c1.374,1.076,3.492,2.396,5.814,2.625
			c0.239-0.098,0.993-0.417,1.841-0.859c0.332-0.207,0.69-0.447,1.071-0.721c0.648-0.467,1.21-0.916,1.518-1.17
			c-1.182-1.676-2.036-3.436-2.536-5.211c-0.32-1.033-0.535-2.125-0.531-3.188c-1.219-0.467-6.578-2.629-8.406-5.172l-4.408,2.879
			c-0.061,0.264-0.184,1.006,0.013,2.146C30.182,57.143,30.911,59.327,33.075,62.104z"/>
		<path fill="#FFFFFF" d="M70.779,62.523l0.014-0.015c0.041-0.043,4.068-4.35,3.26-8.069c-0.4-0.338-2.109-1.758-3.75-2.693
			c-0.457-0.252-0.932-0.479-1.404-0.66c-0.188,0.199-0.537,0.543-1.032,0.969c-0.884,0.771-2.238,1.778-4.072,2.687
			c-0.974,0.483-2.069,0.936-3.289,1.295c-0.019,0.164-0.045,0.399-0.09,0.696c-0.128,0.871-0.312,1.689-0.524,2.444
			c-0.438,1.577-1.168,3.49-2.373,5.243c0.276,0.303,0.883,0.91,1.789,1.568c1.307,0.888,2.692,1.506,3.024,1.648
			C62.9,67.566,67.039,66.908,70.779,62.523z"/>
		<path fill="#FFFFFF" d="M41.519,23.091c-3.289,0-7.704,4.381-7.995,4.674c-3.863,5.082-3.45,8.103-3.353,8.575
			c0.454,0.522,1.167,1.133,1.885,1.696c0.612,0.469,1.354,1.012,2.203,1.599c3.142-3.228,7.196-4.843,8.288-5.237
			c0.364-3.978,3.227-7.813,3.8-8.546c-0.072-0.319-0.394-0.686-0.924-1.066c-0.331-0.227-0.74-0.463-1.22-0.7
			c-1.075-0.53-2.18-0.911-2.396-0.984C41.713,23.095,41.616,23.091,41.519,23.091z"/>
		<path fill="#FFFFFF" d="M59.023,20.283c-0.24-0.082-2.828-0.928-6.646-0.928c-2.686,0-5.358,0.411-7.943,1.221
			c-0.17,0.089-1.374,0.745-2.054,1.967c0.457,0.159,1.249,0.454,2.053,0.846c0.632,0.309,1.149,0.615,1.552,0.921
			c0.539,0.396,0.877,0.782,1.017,1.166c0.489-0.164,1.375-0.423,2.513-0.601c0.826-0.134,1.646-0.203,2.456-0.203
			c2.694,0,4.536,0.737,5.217,1.061c0.06-0.06,0.136-0.136,0.229-0.226c0.597-0.63,1.837-1.738,3.657-2.364
			c0.285-0.104,0.578-0.189,0.879-0.253c-0.076-0.164-0.194-0.378-0.377-0.623C61.191,21.75,60.438,20.987,59.023,20.283z"/>
	</g>
	<g>
		<path id="Výplň_2_" fill="#FFFFFF" d="M24.726,31.226c0,0,0.367,0.029,1.389-0.932c1.021-0.96,5.043-1.8,5.043-1.8l3.774-0.343
			l2.604,0.031l4.088,0.104l6.095,0.122l1.199,0.474l4.689,0.281l7.082,0.509l1.313,0.138l4.304-0.606l1.521-0.386
			c0,0,0.233,0.006,0.547-0.585c0.312-0.59,0.078-1.001,0.078-1.001l-0.063-0.156l-0.203-0.28l-0.168,0.156l-0.111-0.01
			l-1.041,0.249l-0.781,0.23l1.729-0.457l0.403-0.377l-0.05-0.329l-0.025-0.598l-0.146-0.365l-0.111-0.035l-0.08-0.344l-0.544-0.636
			l-2.936-1.372l-2.496-1.5l-1.537-1.777l-0.386-0.424l-2.071-0.086l-1.688-1.445l-2.182-1.188l-3.093,0.174l-7.547,0.907
			l-3.854,1.033l-2.452,0.753l-5.154,2.057l-3.185,2.535l-0.741,0.483l-0.961,1.126c0,0-2.961,4.625-4.077,8.163
			c0.047,0.484,0.522-0.712,0.522-0.712L24.726,31.226z"/>
		<g>
			<path fill="#2A2A2A" d="M26.483,26.292c0.262-0.567,0.646-1.063,1.038-1.545c0.399-0.479,0.842-0.917,1.303-1.338
				c0.487-0.385,0.95-0.81,1.474-1.147c0.515-0.351,1.022-0.717,1.575-1.003c0.542-0.309,1.083-0.616,1.654-0.864
				c0.567-0.255,1.118-0.552,1.705-0.756c0.581-0.222,1.158-0.455,1.745-0.66l1.787-0.528c0.59-0.194,1.198-0.32,1.806-0.446
				l1.818-0.389l1.836-0.282c0.613-0.083,1.22-0.208,1.835-0.271l1.843-0.205c0.616-0.055,1.226-0.167,1.842-0.204l3.697-0.297
				l-0.01,0.001c0.502-0.016,0.938,0.122,1.358,0.306c0.427,0.169,0.812,0.417,1.185,0.673c0.369,0.264,0.728,0.542,1.049,0.858
				c0.336,0.299,0.642,0.632,0.985,0.76c0.179,0.077,0.373,0.114,0.56,0.111c0.16,0,0.395-0.083,0.658-0.073
				c0.512-0.025,1.035,0.214,1.375,0.58c0.344,0.362,0.558,0.785,0.766,1.169c0.203,0.415,0.402,0.628,0.795,0.845
				c0.734,0.427,1.561,0.762,2.375,1.084c0.418,0.168,0.807,0.294,1.247,0.485c0.413,0.179,0.821,0.361,1.228,0.581
				c0.2,0.114,0.409,0.225,0.621,0.424c0.182,0.194,0.309,0.408,0.422,0.608c0.225,0.416,0.414,0.834,0.495,1.346
				c0.013,0.133,0.027,0.269-0.018,0.441c-0.013,0.162-0.22,0.39-0.394,0.433c-0.214,0.068-0.41,0.149-0.65,0.197
				c-0.473,0.112-0.895,0.166-1.323,0.254l-0.019,0.003h-0.004c-1.922,0.218-3.844,0.333-5.772,0.303
				c-0.963-0.023-1.931-0.075-2.884-0.242c-0.938-0.186-1.934-0.418-2.663-1.083l0.038-0.042c0.746,0.601,1.729,0.77,2.658,0.896
				c0.944,0.109,1.897,0.146,2.852,0.133c1.906-0.031,3.816-0.209,5.697-0.484l-0.021,0.004c0.437-0.104,0.896-0.184,1.282-0.29
				c0.195-0.037,0.412-0.124,0.621-0.192c0.033-0.029,0.004,0.023,0.023-0.04c0.016-0.042,0.012-0.133,0.002-0.219
				c-0.058-0.367-0.231-0.774-0.434-1.134c-0.104-0.184-0.21-0.353-0.333-0.483c-0.112-0.104-0.295-0.211-0.479-0.313
				c-0.377-0.2-0.779-0.378-1.183-0.55c-0.372-0.164-0.831-0.307-1.233-0.48c-0.826-0.343-1.649-0.687-2.443-1.162l-0.298-0.199
				c-0.104-0.083-0.226-0.176-0.287-0.254c-0.19-0.213-0.284-0.417-0.396-0.617c-0.205-0.397-0.398-0.776-0.666-1.064
				c-0.266-0.282-0.609-0.453-0.992-0.452c-0.184-0.022-0.381,0.048-0.664,0.051c-0.258-0.005-0.506-0.063-0.731-0.168
				c-0.487-0.215-0.771-0.587-1.089-0.877c-0.303-0.318-0.637-0.595-0.98-0.859c-0.349-0.256-0.711-0.505-1.104-0.675
				c-0.378-0.188-0.814-0.323-1.2-0.326l-0.011,0.001L49.76,16.84c-0.616,0.031-1.227,0.124-1.838,0.197l-1.834,0.236
				c-0.613,0.067-1.213,0.215-1.819,0.327l-1.812,0.358c-1.188,0.322-2.391,0.582-3.561,0.954l-1.758,0.545l-1.724,0.639
				c-0.583,0.193-1.128,0.475-1.69,0.717c-0.567,0.235-1.103,0.528-1.64,0.823c-0.548,0.276-1.063,0.604-1.581,0.93
				c-0.529,0.31-0.996,0.708-1.491,1.067c-0.462,0.399-0.935,0.79-1.356,1.235c-0.416,0.446-0.828,0.911-1.123,1.45L26.483,26.292z"
				/>
		</g>
		<g>
			<path fill="#2A2A2A" d="M22.679,35.736c-0.003-0.911,0.148-1.85,0.543-2.7c0.398-0.847,1.009-1.59,1.728-2.188
				c1.464-1.187,3.265-1.831,5.056-2.241c1.807-0.396,3.651-0.527,5.484-0.524c1.834,0.009,3.66,0.1,5.482,0.298l-0.037,0.003
				c0.439-0.063,0.825-0.069,1.238-0.094l1.221-0.049c0.814-0.032,1.629-0.052,2.447-0.044c0.409,0.004,0.818,0.015,1.23,0.046
				c0.207,0.015,0.413,0.035,0.625,0.072c0.106,0.019,0.211,0.039,0.329,0.081c0.13,0.046,0.222,0.118,0.282,0.127
				c0.334,0.107,0.754,0.16,1.146,0.207c0.399,0.045,0.801,0.079,1.205,0.107c0.806,0.061,1.615,0.105,2.425,0.135
				c0.817,0.035,1.604,0.039,2.429,0.038c0.848,0.038,1.645,0.13,2.459,0.207l2.43,0.262l0.021,0.002l0.038,0.01
				c0.564,0.155,1.281,0.113,1.945,0.081c0.679-0.047,1.357-0.131,2.037-0.231c0.678-0.099,1.354-0.223,2.029-0.347
				c0.316-0.061,0.67-0.143,1.002-0.213l0.213-0.09l0.188-0.125c0.124-0.096,0.235-0.201,0.339-0.322l-0.015,0.024
				c0.028-0.063,0.063-0.125,0.089-0.188c0.025-0.073,0.049-0.114,0.064-0.192c0.043-0.151,0.062-0.272,0.057-0.41
				c-0.002-0.145-0.032-0.264-0.098-0.404c-0.058-0.137-0.142-0.242-0.246-0.343l0.031-0.047c0.125,0.085,0.246,0.206,0.321,0.335
				c0.079,0.119,0.153,0.285,0.173,0.438c0.03,0.157,0.023,0.337,0.004,0.475c-0.002,0.071-0.033,0.169-0.051,0.238
				c-0.021,0.077-0.055,0.149-0.08,0.225L68.461,28.4l-0.011,0.015c-0.111,0.149-0.246,0.288-0.392,0.409
				c-0.082,0.057-0.107,0.091-0.235,0.167c-0.089,0.041-0.128,0.071-0.259,0.121l-1.01,0.269c-0.675,0.167-1.354,0.3-2.037,0.425
				c-0.685,0.122-1.371,0.229-2.068,0.3c-0.703,0.053-1.393,0.137-2.17-0.069l0.058,0.012c-1.606-0.17-3.252-0.333-4.828-0.447
				c-0.804-0.013-1.643-0.032-2.45-0.081c-0.814-0.046-1.629-0.1-2.443-0.182c-0.407-0.044-0.814-0.093-1.221-0.155
				c-0.412-0.069-0.805-0.122-1.241-0.28c-0.136-0.051-0.207-0.114-0.269-0.134c-0.073-0.03-0.167-0.054-0.261-0.073
				c-0.188-0.04-0.385-0.067-0.584-0.089c-0.397-0.044-0.802-0.071-1.206-0.09c-0.809-0.039-1.621-0.052-2.433-0.052
				c-0.406-0.003-0.812,0.011-1.218,0.023c-0.398,0.015-0.828,0.024-1.195,0.069l-0.03,0.003H40.95
				c-1.806-0.207-3.637-0.251-5.451-0.156c-1.814,0.1-3.623,0.305-5.383,0.696c-1.753,0.385-3.493,0.98-4.917,2.059
				c-0.708,0.536-1.316,1.208-1.733,1.997c-0.439,0.781-0.661,1.672-0.73,2.581L22.679,35.736z"/>
		</g>
		<g>
			<path fill="#2A2A2A" d="M47.497,28.418c0,0-0.207-0.037-0.552-0.167c-0.346-0.125-0.829-0.347-1.355-0.717
				c-0.264-0.184-0.543-0.4-0.801-0.677c-0.274-0.257-0.519-0.587-0.743-0.942c-0.205-0.372-0.418-0.764-0.511-1.216
				c-0.074-0.217-0.111-0.443-0.118-0.675c-0.014-0.229-0.045-0.463-0.039-0.692c0.088-0.445,0.088-0.925,0.273-1.326
				c0.147-0.415,0.298-0.825,0.531-1.159c0.22-0.341,0.404-0.697,0.66-0.959c0.24-0.276,0.479-0.526,0.698-0.752
				c0.204-0.241,0.453-0.399,0.651-0.56c0.205-0.151,0.383-0.283,0.53-0.392c0.298-0.21,0.473-0.319,0.473-0.319
				s-0.106,0.185-0.302,0.489c-0.1,0.148-0.221,0.329-0.359,0.536c-0.135,0.207-0.314,0.418-0.454,0.685
				c-0.148,0.261-0.309,0.54-0.49,0.822c-0.193,0.278-0.284,0.622-0.457,0.933c-0.187,0.312-0.237,0.672-0.362,1.011
				c-0.151,0.339-0.111,0.703-0.185,1.052c-0.011,0.175,0.013,0.35,0.014,0.524c-0.006,0.177,0.016,0.349,0.07,0.515
				c0.05,0.166,0.064,0.34,0.121,0.502c0.064,0.161,0.127,0.321,0.189,0.478c0.161,0.297,0.299,0.61,0.498,0.868
				c0.184,0.269,0.376,0.516,0.57,0.737c0.388,0.438,0.75,0.793,1.018,1.028C47.332,28.288,47.497,28.418,47.497,28.418z"/>
		</g>
		<g>
			<path fill="#2A2A2A" d="M48.132,20.034c0,0-0.083,0.21-0.188,0.583c-0.106,0.371-0.261,0.897-0.338,1.537
				c-0.066,0.316-0.053,0.664-0.084,1.027c0.019,0.362-0.015,0.755,0.08,1.151c0.022,0.204,0.064,0.408,0.158,0.597
				c0.083,0.192,0.151,0.399,0.273,0.577c0.258,0.347,0.517,0.702,0.886,0.949c0.175,0.132,0.337,0.273,0.516,0.393l0.561,0.321
				c0.352,0.238,0.74,0.402,1.12,0.554c0.372,0.164,0.728,0.329,1.09,0.438c0.354,0.12,0.688,0.249,0.996,0.369
				c0.308,0.122,0.608,0.173,0.862,0.266c0.26,0.083,0.484,0.154,0.67,0.213c0.371,0.134,0.584,0.21,0.584,0.21l-0.01,0.057
				c0,0-0.225-0.009-0.617-0.043c-0.196-0.021-0.436-0.047-0.709-0.077c-0.271-0.035-0.584-0.059-0.912-0.146
				c-0.329-0.084-0.688-0.175-1.062-0.289c-0.382-0.088-0.759-0.269-1.142-0.463c-0.386-0.187-0.785-0.38-1.143-0.667l-0.549-0.405
				c-0.167-0.157-0.315-0.339-0.472-0.505c-0.338-0.313-0.548-0.729-0.818-1.083c-0.126-0.184-0.199-0.397-0.312-0.586
				c-0.114-0.191-0.206-0.389-0.267-0.597c-0.169-0.404-0.242-0.822-0.284-1.225c0.005-0.399,0.021-0.782,0.107-1.12
				c0.138-0.684,0.395-1.206,0.597-1.549c0.201-0.346,0.358-0.514,0.358-0.514L48.132,20.034z"/>
		</g>
		
			<ellipse transform="matrix(-0.279 -0.9603 0.9603 -0.279 49.0835 80.3674)" fill="#FFFFFF" stroke="#2A2A2A" stroke-width="0.4275" stroke-miterlimit="10" cx="54.712" cy="21.758" rx="1.638" ry="1.419"/>
		<path fill="none" stroke="#2A2A2A" stroke-width="0.0712" stroke-miterlimit="10" d="M55.486,20.644c0,0,1.1,1.551,2.365,1.833
			c1.265,0.282,6.963,1.891,6.979,2.268"/>
		<path fill="none" stroke="#2A2A2A" stroke-width="0.0712" stroke-miterlimit="10" d="M61.2,20.798c0,0,0.46,1.909,4.905,3.481"/>
		<g>
			<path fill="#FFFFFF" d="M43.297,26.975c0.174,0.055,1.286,0.258,1.031,0.648s-3.811,3.74-4.526,3.632
				c-0.716-0.108-4.786-1.611-3.067-2.584c1.718-0.973,5.656-1.011,5.703-1.394C42.484,26.896,43.297,26.975,43.297,26.975z"/>
			<path fill="#2A2A2A" d="M43.3,26.961c0,0,0.074,0.018,0.209,0.05c0.135,0.034,0.337,0.078,0.58,0.183
				c0.107,0.061,0.283,0.116,0.314,0.316c-0.026,0.214-0.175,0.288-0.287,0.446c-0.243,0.272-0.521,0.574-0.842,0.887
				c-0.637,0.629-1.43,1.315-2.365,1.941c-0.234,0.156-0.479,0.304-0.746,0.429c-0.126,0.057-0.299,0.115-0.447,0.071
				c-0.141-0.029-0.286-0.079-0.426-0.118c-0.563-0.171-1.124-0.381-1.664-0.646c-0.269-0.134-0.538-0.271-0.786-0.449
				c-0.244-0.174-0.507-0.368-0.622-0.712c-0.06-0.167-0.005-0.386,0.107-0.514c0.1-0.15,0.245-0.216,0.373-0.313
				c0.251-0.142,0.533-0.258,0.798-0.351c1.083-0.354,2.125-0.494,3.012-0.594c0.443-0.046,0.85-0.089,1.21-0.127
				c0.343-0.07,0.717-0.042,0.773-0.347c0.232-0.184,0.455-0.15,0.591-0.164C43.224,26.95,43.3,26.961,43.3,26.961z M43.295,26.989
				c0,0-0.072-0.008-0.211-0.001c-0.128,0.011-0.365,0.011-0.544,0.159c-0.049,0.033-0.05,0.109-0.091,0.183
				c-0.06,0.072-0.135,0.093-0.21,0.125c-0.152,0.055-0.319,0.095-0.497,0.135c-0.356,0.078-0.759,0.157-1.198,0.235
				c-0.874,0.167-1.91,0.299-2.952,0.639c-0.464,0.167-1.206,0.391-1.129,0.838c0.054,0.223,0.275,0.44,0.5,0.609
				c0.224,0.18,0.48,0.328,0.736,0.473c0.52,0.279,1.069,0.508,1.619,0.698c0.577,0.319,1.065-0.092,1.503-0.421
				c0.872-0.686,1.626-1.4,2.302-1.979c0.332-0.296,0.645-0.559,0.905-0.81c0.107-0.118,0.291-0.25,0.296-0.361
				c0.001-0.127-0.152-0.215-0.258-0.268c-0.232-0.109-0.432-0.159-0.565-0.197C43.365,27.008,43.295,26.989,43.295,26.989z"/>
		</g>
		<circle fill="#2A2A2A" cx="54.84" cy="22.248" r="0.439"/>
		<g>
			<g>
				<path fill="#2A2A2A" d="M43.307,27.187c0,0-0.111,0.022-0.28,0.12c-0.083,0.046-0.187,0.13-0.158,0.276
					c-0.021,0.149-0.195,0.222-0.342,0.282c-0.16,0.066-0.346,0.064-0.53,0.109c-0.188,0.037-0.386,0.075-0.592,0.115
					c-0.409,0.087-0.845,0.18-1.281,0.272c-0.871,0.192-1.733,0.419-2.372,0.613c-0.317,0.101-0.58,0.202-0.738,0.313
					c-0.075,0.054-0.132,0.124-0.104,0.174c0.023,0.042,0.048,0.06,0.045,0.061c0.002,0.001,0.002,0.003,0.001,0.005
					s-0.003,0.002-0.005,0.001c0.002-0.001-0.024-0.018-0.051-0.063c-0.033-0.057,0.027-0.134,0.102-0.192
					c0.158-0.121,0.418-0.231,0.733-0.344c0.63-0.234,1.503-0.433,2.375-0.624c0.438-0.088,0.875-0.175,1.286-0.257
					c0.206-0.037,0.405-0.073,0.594-0.107c0.19-0.042,0.375-0.038,0.527-0.1c0.147-0.057,0.313-0.127,0.333-0.26
					c-0.028-0.146,0.086-0.246,0.169-0.286c0.172-0.096,0.284-0.116,0.284-0.116c0.002,0,0.004,0,0.004,0.002
					C43.31,27.184,43.309,27.186,43.307,27.187z"/>
			</g>
			<path fill="none" stroke="#2A2A2A" stroke-width="0.0712" stroke-linecap="round" stroke-miterlimit="10" d="M43.528,27.279
				c0,0-0.347,0.1-0.325,0.265c0.022,0.167-0.409,0.292-0.48,0.332c-0.41,0.226-5.261,1.775-4.864,2.087"/>
			<path fill="none" stroke="#2A2A2A" stroke-width="0.0712" stroke-linecap="round" stroke-miterlimit="10" d="M43.75,27.376
				c0,0-0.187,0.064-0.205,0.17c-0.021,0.114-0.291,0.221-0.39,0.297c-0.721,0.547-4.484,2.474-4.392,2.56"/>
			<g>
				<path fill="#2A2A2A" d="M43.975,27.475c0,0-1.022,0.917-2.074,1.799c-0.528,0.438-1.056,0.879-1.484,1.168
					c-0.211,0.147-0.393,0.264-0.526,0.334c-0.131,0.079-0.226,0.076-0.225,0.066c-0.002,0-0.003-0.002-0.003-0.003
					c0-0.002,0.005-0.002,0.007-0.002c-0.001,0.007,0.084,0.007,0.212-0.076c0.129-0.076,0.304-0.2,0.507-0.357
					c0.402-0.32,0.939-0.747,1.475-1.174c1.053-0.88,2.106-1.76,2.106-1.76c0.001-0.001,0.004-0.001,0.005,0
					C43.976,27.472,43.976,27.474,43.975,27.475z"/>
			</g>
		</g>
	</g>
	<g>
		<path fill="#2A2A2A" d="M40.228,20.217c0,0,0.664-0.813,1.163-0.76c0.5,0.054,0.558,0.164,0.833,0.124
			c0.276-0.04,0.485,0.275,0.365,0.377s-1.115,0.346-0.983,0.509C41.737,20.632,40.1,20.788,40.228,20.217z"/>
		<path fill="#2A2A2A" d="M39.998,26.384c0,0,0.839-0.749,1.328-0.57c0.489,0.178,0.524,0.313,0.81,0.334
			c0.285,0.022,0.427,0.422,0.285,0.507c-0.143,0.085-1.191,0.121-1.095,0.334C41.423,27.203,39.749,26.989,39.998,26.384z"/>
		<path fill="#2A2A2A" d="M39.324,24.123c0,0,0.839-0.749,1.328-0.57c0.489,0.179,0.524,0.313,0.81,0.335s0.428,0.421,0.285,0.506
			s-1.192,0.121-1.095,0.334C40.749,24.942,39.075,24.728,39.324,24.123z"/>
		<path fill="#2A2A2A" d="M37.002,26.203c0,0,0.181-0.041,0.376,0.175c0.194,0.217-0.124,0.715,0,0.822
			c0.123,0.107-0.341,0.537-0.661,0.625c-0.321,0.087-2.245-0.665-2.352-0.805c-0.106-0.14-0.203-0.644,0.291-0.624
			c0.494,0.021,1.42,0.086,1.491,0C36.219,26.31,37.002,26.203,37.002,26.203z"/>
		<path fill="#2A2A2A" d="M39.299,21.498c0.427,0.159,0.885,0.08,0.673,0.439c-0.211,0.361-0.959,0.389-0.924,0.625
			c0.036,0.235-0.926,0.335-0.926,0s0.569-0.762,0.712-0.87C38.977,21.586,39.299,21.498,39.299,21.498z"/>
		<path fill="#2A2A2A" d="M31.104,23.441c0.426,0.159,0.885,0.079,0.674,0.439c-0.212,0.361-0.96,0.389-0.924,0.624
			c0.036,0.235-0.926,0.335-0.926,0s0.57-0.762,0.712-0.869C30.782,23.529,31.104,23.441,31.104,23.441z"/>
		<path fill="#2A2A2A" d="M37.659,20.619c0.213,0.076,0.356,0.558,0,0.709c-0.356,0.15-1.013,0.392-1.13,0.609
			c-0.116,0.218-1.506,0.746-1.648,0.625s-0.071-0.878,0-0.962c0.071-0.085,1.648-0.581,1.648-0.581L37.659,20.619z"/>
		<path fill="#2A2A2A" d="M35.628,23.525c0,0,0.784-0.048,1.069,0.146c0.285,0.194-0.143,0.369,0.392,0.496
			c0.535,0.127,0.285,0.765,0,0.642c-0.285-0.124-0.329-0.017-0.751-0.195c-0.424-0.178-0.144-0.242-0.391-0.442
			C35.7,23.973,35.628,23.525,35.628,23.525z"/>
		<path fill="#2A2A2A" d="M26.613,28.883c0.323-0.172,0.644,0,0.644,0s0.071,0.184-0.178,0.291c-0.25,0.107-0.784,0.285-0.784,0.285
			s0.042-0.077,0.18-0.326C26.613,28.884,26.613,28.883,26.613,28.883z"/>
		<path fill="#2A2A2A" d="M27.977,25.951c0.323-0.172,0.645,0,0.645,0s0.071,0.184-0.178,0.291c-0.25,0.107-0.784,0.285-0.784,0.285
			s0.042-0.077,0.18-0.325C27.977,25.951,27.977,25.951,27.977,25.951z"/>
		<path fill="#2A2A2A" d="M28.682,28.002c0.427-0.004,0.712,0.316,0.712,0.459c0,0.142-0.605,0.142-0.712,0.214
			c-0.107,0.071-0.499-0.174-0.534-0.336c-0.036-0.162,0.356-0.336,0.356-0.336L28.682,28.002L28.682,28.002z"/>
		<path fill="#2A2A2A" d="M29.838,26.086c0.428-0.004,0.713,0.316,0.713,0.458c0,0.143-0.605,0.143-0.713,0.214
			c-0.106,0.071-0.499-0.174-0.534-0.336c-0.035-0.163,0.356-0.336,0.356-0.336H29.838z"/>
		<path fill="#2A2A2A" d="M33.083,25.163c0.428-0.004,0.712,0.316,0.712,0.459s-0.605,0.143-0.712,0.214
			c-0.107,0.071-0.499-0.174-0.535-0.336c-0.035-0.162,0.356-0.336,0.356-0.336L33.083,25.163L33.083,25.163z"/>
		<path fill="#2A2A2A" d="M38.219,25.163c0.428-0.004,0.712,0.316,0.712,0.459s-0.605,0.143-0.712,0.214
			c-0.106,0.071-0.499-0.174-0.534-0.336c-0.036-0.162,0.356-0.336,0.356-0.336L38.219,25.163L38.219,25.163z"/>
		<path fill="#2A2A2A" d="M30.641,27.263c0.463-0.048,1.496-0.372,1.638-0.192c0.143,0.18-0.285,0.249-0.356,0.642
			c-0.071,0.393-0.712,0.544-0.926,0.29C30.784,27.749,30.641,27.263,30.641,27.263z"/>
		<path fill="#2A2A2A" d="M32.813,23.216c0.463-0.048,1.497-0.372,1.639-0.193c0.143,0.18-0.285,0.25-0.356,0.643
			c-0.072,0.393-0.713,0.543-0.927,0.29S32.813,23.216,32.813,23.216z"/>
	</g>
	<g>
		<g>
			<path fill="#2A2A2A" d="M70.395,50.321l-2.4-2.025l-0.122-0.103l0.295-0.041l1.478-0.203v-1.491V31.411v-1.962L67.7,29.717
				l-2.905,0.4l-1.477,0.204l0,0l-0.461,0.064l-2.906,0.4l-1.477,0.203v1.335l-0.061-0.127l-0.54-1.125l-1.235,0.17l-2.861,0.395
				l-1.943,0.268l-2.905,0.4l-1.477,0.204l0,0l-0.46,0.063l-2.906,0.401l-1.053,0.145l-0.336,1.01l-0.091,0.275l-0.422-1.168
				l-1.372,0.189l-2.906,0.401l-1.477,0.203v1.49v15.045v1.963l1.944-0.269l0.682-0.094l-2.362,2.642l-0.435,0.485v0.653v10.334
				v0.798l0.608,0.512l2.402,2.022l0.582,0.492l0.753-0.104l4.34-0.599l0.619-0.086l0.418-0.463l2.287-2.541l2.102,1.771l0.582,0.49
				l0.753-0.104l4.34-0.597l0.624-0.087l0.417-0.468l1.354-1.517v1.738l1.943-0.269l2.905-0.399l1.478-0.202v-1.491v-4.133
				l2.358-0.325l0.627-0.087l0.42-0.472l2.399-2.706l0.433-0.486V56.32v-4.693v-0.794L70.395,50.321z M38.137,50.562V35.517
				l2.906-0.4l1.627,4.507l1.646-4.958l2.906-0.4v15.046l-2.906,0.401v-6.156l-1.646,4.958l-1.627-4.506v6.156L38.137,50.562z
				 M47.13,65.018l-2.422,2.689l-4.34,0.598l-2.402-2.025V55.943l2.402-2.687l2.093-0.286l0.557-0.078l1.69-0.233l2.422,2.022v2.394
				l-2.906,0.399v-1.082l-0.853-0.699l-1.666,0.229l-0.833,0.933v7.713l0.833,0.701l1.666-0.229l0.853-0.933v-1.084l2.906-0.4
				V65.018z M65.025,31.812l2.906-0.4v15.046l-2.906,0.401V31.812z M54.003,33.331l2.868-0.395l3.312,6.914v-7.371l2.904-0.401
				v15.046l-2.847,0.393l-3.332-6.931v7.39l-2.907,0.4L54.003,33.331L54.003,33.331z M49.16,33.999l2.906-0.401v15.046l-2.906,0.401
				V33.999z M58.211,63.49l-2.402,2.686l-4.34,0.6l-2.401-2.024V52.059l2.905-0.399v11.38l0.834,0.703l1.666-0.229l0.832-0.935V51.2
				l2.906-0.401V63.49z M69.292,56.32l-2.401,2.705l-3.836,0.529v5.622l-2.906,0.4V50.532l6.742-0.93l2.401,2.024V56.32z"/>
			<polygon fill="#2A2A2A" points="63.055,52.98 63.055,56.705 65.553,56.359 66.406,55.426 66.406,53.316 65.553,52.637 			"/>
		</g>
		<g>
			<polygon fill="#FFFFFF" points="42.67,39.624 41.043,35.117 38.137,35.517 38.137,50.562 41.043,50.164 41.043,44.008 
				42.67,48.514 44.317,43.557 44.317,49.712 47.223,49.312 47.223,34.265 44.317,34.666 			"/>
			<polygon fill="#FFFFFF" points="52.066,33.598 49.16,33.999 49.16,49.045 52.066,48.644 			"/>
			<polygon fill="#FFFFFF" points="56.91,40.587 60.242,47.518 63.089,47.125 63.089,32.079 60.184,32.479 60.184,39.85 
				56.871,32.936 54.003,33.331 54.003,48.377 56.91,47.977 			"/>
			<polygon fill="#FFFFFF" points="67.932,31.411 65.025,31.812 65.025,46.858 67.932,46.458 			"/>
			<polygon fill="#FFFFFF" points="40.368,53.258 37.966,55.943 37.966,66.279 40.368,68.305 44.708,67.707 47.13,65.018 
				47.13,62.623 44.224,63.023 44.224,64.107 43.371,65.04 41.705,65.27 40.872,64.568 40.872,56.855 41.705,55.924 43.371,55.693 
				44.224,56.395 44.224,57.475 47.13,57.075 47.13,54.682 44.708,52.659 			"/>
			<polygon fill="#FFFFFF" points="55.305,62.578 54.473,63.512 52.807,63.741 51.973,63.038 51.973,51.658 49.067,52.059 
				49.067,64.75 51.469,66.775 55.809,66.176 58.211,63.49 58.211,50.799 55.305,51.2 			"/>
			<path fill="#FFFFFF" d="M66.891,49.603l-6.742,0.93v15.046l2.906-0.399v-5.623l3.836-0.529l2.401-2.705v-4.693L66.891,49.603z
				 M66.406,55.426l-0.854,0.936l-2.499,0.345v-3.724l2.499-0.346l0.854,0.682V55.426z"/>
		</g>
	</g>
	<path fill="none" d="M19.649,70.059c0,0,31.484,35.533,65.087-2.154"/>
</g>
<g>
	<path fill="#FFFFFF" d="M40.97,84.511l-3.039-1.035l2.168-6.366l1.206,0.41l-1.757,5.161l1.833,0.624L40.97,84.511z"/>
	<path fill="#FFFFFF" d="M43.753,78.29l1.234,0.315l-1.669,6.516l-1.233-0.315L43.753,78.29z"/>
	<path fill="#FFFFFF" d="M48.951,80.626l-1.165-0.191l-0.878,5.381L45.65,85.61l0.879-5.381l-1.174-0.191l0.205-1.257l3.596,0.587
		L48.951,80.626z"/>
	<path fill="#FFFFFF" d="M52.39,86.231l-1.894-0.051L49.473,85.1l0.125-4.619l1.082-1.023l1.893,0.051l1.032,1.082l-0.126,4.618
		L52.39,86.231z M52.222,84.588l0.094-3.455l-0.355-0.366l-0.729-0.021l-0.383,0.355l-0.094,3.445l0.363,0.376l0.729,0.02
		L52.222,84.588z"/>
	<path fill="#FFFFFF" d="M58.168,79.028l-0.654,6.854l-1.18,0.142l-2.264-6.501l1.29-0.156l1.174,3.35l0.335-3.531L58.168,79.028z"
		/>
	<path fill="#FFFFFF" d="M64.232,84.379l-3.868,1.048l-1.759-6.491l3.868-1.048l0.334,1.229l-2.64,0.715l0.38,1.402l1.229-0.334
		l0.333,1.229l-1.229,0.334l0.379,1.4l2.64-0.715L64.232,84.379z"/>
	<path fill="#FFFFFF" d="M68.454,82.717l-2.973,1.211l-2.536-6.229l1.18-0.481l2.056,5.05l1.793-0.729L68.454,82.717z"/>
</g>
</svg>
