<?xml version="1.0" encoding="utf-8"?>
<!-- Generator: Adobe Illustrator 16.0.0, SVG Export Plug-In . SVG Version: 6.00 Build 0)  -->
<!DOCTYPE svg PUBLIC "-//W3C//DTD SVG 1.1//EN" "http://www.w3.org/Graphics/SVG/1.1/DTD/svg11.dtd">
<svg version="1.1" id="Layer_1" xmlns="http://www.w3.org/2000/svg" xmlns:xlink="http://www.w3.org/1999/xlink" x="0px" y="0px"
	 width="50px" height="50px" viewBox="0 0 50 50" enable-background="new 0 0 50 50" xml:space="preserve">
<path fill="#368BCC" d="M25,3.652c11.79,0,21.349,9.558,21.349,21.348c0,11.791-9.559,21.349-21.349,21.349S3.652,36.791,3.652,25
	C3.652,13.21,13.21,3.652,25,3.652 M25,2.307c-6.062,0-11.76,2.36-16.046,6.646C4.667,13.24,2.307,18.938,2.307,25
	c0,6.062,2.36,11.76,6.646,16.047c4.287,4.286,9.985,6.646,16.046,6.646s11.761-2.36,16.046-6.646
	c4.286-4.287,6.647-9.984,6.647-16.047c0-6.062-2.361-11.76-6.647-16.046C36.761,4.667,31.062,2.307,25,2.307L25,2.307z"/>
<path fill="#368BCC" d="M36.329,17.94c-1.071-3.939-4.67-6.836-8.948-6.836c-4.277,0-7.876,2.897-8.947,6.836H11.44v17.034h27.12
	V17.94H36.329z M14.999,19.369c0.975,0,1.765,0.79,1.765,1.765c0,0.975-0.791,1.765-1.765,1.765c-0.975,0-1.765-0.79-1.765-1.765
	C13.233,20.159,14.023,19.369,14.999,19.369z M27.241,33.489H13.065v-1.513h14.176V33.489z M27.409,27.914
	c-4.147,0-7.508-3.362-7.508-7.509c0-4.146,3.361-7.508,7.508-7.508c4.146,0,7.509,3.362,7.509,7.508
	C34.918,24.552,31.556,27.914,27.409,27.914z"/>
<path fill="#368BCC" d="M27.41,15.568c2.667,0,4.837,2.17,4.837,4.837c0,2.668-2.17,4.838-4.837,4.838
	c-2.668,0-4.839-2.17-4.839-4.838C22.571,17.738,24.742,15.568,27.41,15.568 M27.41,14.223c-3.415,0-6.183,2.768-6.183,6.182
	c0,3.415,2.768,6.183,6.183,6.183c3.414,0,6.182-2.768,6.182-6.183C33.592,16.991,30.824,14.223,27.41,14.223L27.41,14.223z"/>
</svg>
