<?xml version="1.0" encoding="utf-8"?>
<!-- Generator: Adobe Illustrator 16.0.0, SVG Export Plug-In . SVG Version: 6.00 Build 0)  -->
<!DOCTYPE svg PUBLIC "-//W3C//DTD SVG 1.1//EN" "http://www.w3.org/Graphics/SVG/1.1/DTD/svg11.dtd">
<svg version="1.1" id="Layer_1" xmlns="http://www.w3.org/2000/svg" xmlns:xlink="http://www.w3.org/1999/xlink" x="0px" y="0px"
	 width="50px" height="50px" viewBox="0 0 50 50" enable-background="new 0 0 50 50" xml:space="preserve">
<ellipse fill="#388ACB" cx="26.247" cy="25.247" rx="13.909" ry="13.874"/>
<path fill="#FFFFFF" d="M26.193,37.324c-6.712,0-12.169-5.446-12.169-12.14c0-6.694,5.458-12.141,12.169-12.141
	c6.711,0,12.17,5.447,12.17,12.141C38.363,31.878,32.904,37.324,26.193,37.324z M26.193,14.805c-5.738,0-10.406,4.657-10.406,10.379
	c0,5.725,4.667,10.379,10.406,10.379c5.737,0,10.404-4.654,10.404-10.379C36.598,19.462,31.931,14.805,26.193,14.805z"/>
<path fill="#FFFFFF" d="M26.247,18.648c-5.195,0-9.42-4.215-9.42-9.396c0-5.181,4.225-9.396,9.42-9.396
	c5.192,0,9.418,4.215,9.418,9.396C35.665,14.434,31.439,18.648,26.247,18.648z M26.247,1.618c-4.22,0-7.653,3.425-7.653,7.635
	c0,4.21,3.433,7.635,7.653,7.635c4.22,0,7.653-3.425,7.653-7.635C33.9,5.043,30.467,1.618,26.247,1.618z"/>
<path fill="#FFFFFF" d="M10.137,35.534c-5.194,0-9.419-4.215-9.419-9.395c0-5.181,4.225-9.396,9.419-9.396
	c5.193,0,9.419,4.215,9.419,9.396C19.556,31.319,15.33,35.534,10.137,35.534z M10.137,18.505c-4.22,0-7.654,3.425-7.654,7.635
	s3.434,7.635,7.654,7.635c4.219,0,7.654-3.425,7.654-7.635S14.356,18.505,10.137,18.505z"/>
<path fill="#FFFFFF" d="M40.581,35.534c-5.195,0-9.42-4.215-9.42-9.395c0-5.181,4.225-9.396,9.42-9.396
	c5.191,0,9.419,4.215,9.419,9.396C50,31.319,45.772,35.534,40.581,35.534z M40.581,18.505c-4.221,0-7.654,3.425-7.654,7.635
	s3.434,7.635,7.654,7.635c4.219,0,7.653-3.425,7.653-7.635S44.8,18.505,40.581,18.505z"/>
<path fill="#FFFFFF" d="M26.815,50.824c-5.195,0-9.42-4.215-9.42-9.395s4.225-9.396,9.42-9.396c5.194,0,9.419,4.217,9.419,9.396
	S32.01,50.824,26.815,50.824z M26.815,33.795c-4.221,0-7.654,3.425-7.654,7.635s3.433,7.635,7.654,7.635
	c4.22,0,7.653-3.425,7.653-7.635S31.035,33.795,26.815,33.795z"/>
<path fill="#388ACB" d="M26.247,4.64c11.258,0,20.382,9.102,20.382,20.331c0,11.229-9.124,20.333-20.382,20.333
	c-11.257,0-20.383-9.104-20.383-20.333C5.864,13.742,14.99,4.64,26.247,4.64 M26.247,3.358c-5.787,0-11.229,2.248-15.32,6.329
	C6.835,13.77,4.58,19.198,4.58,24.971c0,5.773,2.255,11.201,6.347,15.284c4.091,4.08,9.533,6.328,15.32,6.328
	c5.787,0,11.228-2.248,15.321-6.328c4.091-4.083,6.344-9.511,6.344-15.284c0-5.772-2.253-11.201-6.344-15.283
	C37.475,5.606,32.034,3.358,26.247,3.358L26.247,3.358z"/>
</svg>
