<?xml version="1.0" encoding="utf-8"?>
<!-- Generator: Adobe Illustrator 16.0.0, SVG Export Plug-In . SVG Version: 6.00 Build 0)  -->
<!DOCTYPE svg PUBLIC "-//W3C//DTD SVG 1.1//EN" "http://www.w3.org/Graphics/SVG/1.1/DTD/svg11.dtd">
<svg version="1.1" id="Layer_1" xmlns="http://www.w3.org/2000/svg" xmlns:xlink="http://www.w3.org/1999/xlink" x="0px" y="0px"
	 width="50px" height="50px" viewBox="0 0 50 50" enable-background="new 0 0 50 50" xml:space="preserve">
<path fill="#368BCC" d="M25,3.652c11.79,0,21.349,9.558,21.349,21.348c0,11.791-9.559,21.349-21.349,21.349S3.652,36.791,3.652,25
	C3.652,13.21,13.21,3.652,25,3.652 M25,2.307c-6.062,0-11.76,2.36-16.046,6.646C4.667,13.24,2.307,18.938,2.307,25
	c0,6.062,2.36,11.76,6.646,16.047c4.287,4.286,9.985,6.646,16.046,6.646s11.761-2.36,16.046-6.646
	c4.286-4.287,6.647-9.984,6.647-16.047c0-6.062-2.361-11.76-6.647-16.046C36.761,4.667,31.062,2.307,25,2.307L25,2.307z"/>
<g>
	<rect x="10.82" y="17.404" fill="#378BCC" width="7.757" height="16.905"/>
	<rect x="20.08" y="17.404" fill="#378BCC" width="17.657" height="16.905"/>
</g>
<rect x="21.748" y="22.965" fill="#FFFFFF" width="14.516" height="9.621"/>
<rect x="12.322" y="18.989" fill="#FFFFFF" width="4.755" height="1.668"/>
<rect x="12.322" y="22.826" fill="#FFFFFF" width="4.755" height="1.668"/>
<rect x="12.322" y="26.82" fill="#FFFFFF" width="4.755" height="1.668"/>
<rect x="12.322" y="31.001" fill="#FFFFFF" width="4.755" height="1.668"/>
<rect x="21.901" y="19.823" fill="#FFFFFF" width="4.754" height="1.668"/>
</svg>
