<?xml version="1.0" encoding="utf-8"?>
<!-- Generator: Adobe Illustrator 16.0.0, SVG Export Plug-In . SVG Version: 6.00 Build 0)  -->
<!DOCTYPE svg PUBLIC "-//W3C//DTD SVG 1.1//EN" "http://www.w3.org/Graphics/SVG/1.1/DTD/svg11.dtd">
<svg version="1.1" id="Layer_1" xmlns="http://www.w3.org/2000/svg" xmlns:xlink="http://www.w3.org/1999/xlink" x="0px" y="0px"
	 width="100px" height="100px" viewBox="0 0 100 100" enable-background="new 0 0 100 100" xml:space="preserve">
<rect fill="#232020" width="100" height="100"/>
<g>
	<path fill="#515151" d="M23.41,54.572l-0.516,0.18l-6.871,2.375l-0.517,0.18l-0.3,0.102l4.979,14.402l0.37,1.07l0.817-0.283
		l6.871-2.375l0.217-0.074l0.601-0.209L23.71,54.469L23.41,54.572z M16.392,58.195l6.871-2.375l0.054,0.156
		c0.656,1.898-0.351,3.967-2.248,4.623c-1.898,0.656-3.967-0.35-4.623-2.248L16.392,58.195z M25.369,61.99L25.718,63l-6.823,2.357
		l-0.349-1.008L25.369,61.99z M23.312,67.086c1.836-0.635,3.835,0.289,4.556,2.07l-6.861,2.371
		C20.473,69.682,21.474,67.721,23.312,67.086z"/>
	<path fill="#515151" d="M90.593,37.337l-0.207,0.072l-2.76,0.954l-0.207,0.072l-0.121,0.042l1.999,5.785l0.149,0.429l0.328-0.113
		l2.759-0.954l0.088-0.03l0.239-0.083l-2.146-6.214L90.593,37.337z M87.774,38.792l2.76-0.954l0.021,0.062
		c0.264,0.762-0.142,1.593-0.902,1.857c-0.764,0.263-1.594-0.141-1.857-0.903L87.774,38.792z M91.38,40.316l0.14,0.405l-2.74,0.947
		l-0.14-0.405L91.38,40.316z M90.554,42.363c0.738-0.255,1.54,0.116,1.829,0.832l-2.755,0.953
		C89.413,43.406,89.815,42.618,90.554,42.363z"/>
	<path fill="#515151" d="M66.286,17.835l0.058-0.399l0.757-5.311l0.058-0.399l0.032-0.232L56.059,9.907l-0.827-0.118l-0.089,0.632
		l-0.758,5.311l-0.022,0.167l-0.068,0.464l11.96,1.705L66.286,17.835z M66.274,12.008l-0.757,5.311l-0.121-0.018
		c-1.467-0.208-2.486-1.567-2.276-3.034c0.209-1.467,1.567-2.486,3.034-2.277L66.274,12.008z M60.757,16.622l-0.779-0.111
		l0.751-5.274l0.781,0.111L60.757,16.622z M58.106,13.553c-0.202,1.419-1.482,2.42-2.895,2.293l0.756-5.303
		C57.359,10.814,58.309,12.133,58.106,13.553z"/>
	<g>
		<path fill="#515151" d="M75.883,24.234c1.979,0,3.71-1.08,4.633-2.679c-1.376-0.747-2.955-1.171-4.633-1.171
			s-3.255,0.424-4.632,1.171C72.175,23.155,73.903,24.234,75.883,24.234z"/>
		<path fill="#515151" d="M80.547,30.695c0,2.215,1.364,4.119,3.296,4.923c1.104-1.572,1.751-3.483,1.751-5.546
			c0-1.632-0.405-3.167-1.119-4.517C82.213,26.176,80.547,28.244,80.547,30.695z"/>
		<path fill="#515151" d="M76.279,36.039c-2.001,0-3.749,1.104-4.664,2.734c1.289,0.63,2.736,0.985,4.268,0.985
			c1.774,0,3.436-0.477,4.867-1.305C79.794,37.001,78.147,36.039,76.279,36.039z"/>
		<path fill="#515151" d="M76.279,34.809c2.295,0,4.317,1.179,5.495,2.961c0.458-0.35,0.885-0.738,1.274-1.163
			c-2.207-1.06-3.734-3.312-3.734-5.914c0-2.891,1.885-5.349,4.492-6.22c-0.62-0.872-1.38-1.636-2.249-2.261
			c-1.143,1.943-3.258,3.251-5.675,3.251c-2.416,0-4.532-1.308-5.675-3.25c-1.002,0.721-1.86,1.628-2.525,2.671
			c2.097,1.098,3.529,3.29,3.529,5.81c0,2.26-1.152,4.257-2.902,5.438c0.635,0.787,1.389,1.473,2.236,2.031
			C71.674,36.163,73.82,34.809,76.279,34.809z"/>
		<path fill="#515151" d="M69.98,30.695c0-2.057-1.177-3.845-2.893-4.734c-0.586,1.248-0.916,2.64-0.916,4.11
			c0,1.853,0.522,3.584,1.427,5.056C69.032,34.17,69.98,32.541,69.98,30.695z"/>
	</g>
	<g>
		<path fill="#515151" d="M28.712,36.135c1.535,0,2.877-0.837,3.593-2.078c-1.068-0.579-2.292-0.908-3.593-0.908
			c-1.301,0-2.524,0.33-3.592,0.908C25.835,35.298,27.178,36.135,28.712,36.135z"/>
		<path fill="#515151" d="M32.329,41.146c0,1.717,1.057,3.194,2.556,3.817c0.855-1.219,1.358-2.701,1.358-4.302
			c0-1.265-0.315-2.456-0.869-3.502C33.621,37.641,32.329,39.245,32.329,41.146z"/>
		<path fill="#515151" d="M29.02,45.29c-1.552,0-2.908,0.856-3.617,2.12c1,0.488,2.122,0.764,3.31,0.764
			c1.375,0,2.664-0.37,3.773-1.012C31.745,46.035,30.468,45.29,29.02,45.29z"/>
		<path fill="#515151" d="M29.02,44.335c1.779,0,3.348,0.915,4.261,2.297c0.356-0.271,0.687-0.572,0.988-0.901
			c-1.711-0.822-2.896-2.569-2.896-4.586c0-2.242,1.462-4.148,3.484-4.824c-0.48-0.676-1.07-1.269-1.744-1.753
			c-0.886,1.507-2.526,2.521-4.4,2.521s-3.515-1.014-4.401-2.521c-0.776,0.56-1.442,1.263-1.958,2.071
			c1.625,0.852,2.737,2.551,2.737,4.506c0,1.752-0.895,3.301-2.25,4.217c0.491,0.61,1.076,1.142,1.733,1.575
			C25.447,45.386,27.112,44.335,29.02,44.335z"/>
		<path fill="#515151" d="M24.134,41.146c0-1.596-0.912-2.982-2.242-3.671c-0.455,0.968-0.711,2.047-0.711,3.187
			c0,1.438,0.405,2.78,1.107,3.921C23.399,43.84,24.134,42.577,24.134,41.146z"/>
	</g>
	<g>
		<path fill="#515151" d="M31.425,72.814c0.822-0.582,1.222-1.539,1.135-2.477c-0.792,0.096-1.572,0.385-2.269,0.879
			c-0.697,0.492-1.228,1.135-1.58,1.85C29.566,73.459,30.603,73.398,31.425,72.814z"/>
		<path fill="#515151" d="M35.264,74.125c0.652,0.92,1.778,1.311,2.818,1.076c-0.004-0.979-0.298-1.963-0.906-2.82
			c-0.48-0.678-1.101-1.195-1.795-1.547C34.625,71.758,34.542,73.107,35.264,74.125z"/>
		<path fill="#515151" d="M35.065,77.602c-0.832,0.59-1.232,1.562-1.132,2.51c0.721-0.119,1.427-0.398,2.062-0.848
			c0.737-0.523,1.287-1.211,1.637-1.975C36.808,76.967,35.841,77.053,35.065,77.602z"/>
		<path fill="#515151" d="M34.703,77.092c0.953-0.678,2.14-0.781,3.154-0.389c0.087-0.279,0.15-0.566,0.187-0.859
			c-1.229,0.211-2.526-0.275-3.292-1.355c-0.852-1.201-0.792-2.775,0.034-3.906c-0.514-0.18-1.055-0.273-1.6-0.277
			c0.097,1.145-0.396,2.311-1.4,3.021s-2.268,0.791-3.314,0.32c-0.204,0.594-0.293,1.225-0.263,1.854
			c1.194-0.162,2.434,0.328,3.176,1.375c0.666,0.938,0.774,2.107,0.396,3.111c0.496,0.141,1.011,0.203,1.527,0.186
			C33.188,79.01,33.682,77.814,34.703,77.092z"/>
		<path fill="#515151" d="M30.875,77.236c-0.605-0.854-1.62-1.25-2.595-1.115c0.124,0.691,0.397,1.367,0.83,1.979
			c0.546,0.77,1.272,1.334,2.082,1.68C31.505,78.959,31.418,78.004,30.875,77.236z"/>
	</g>
	<g>
		<path fill="#515151" d="M46.652,11.202c0.741-0.171,1.296-0.724,1.504-1.402c-0.58-0.162-1.207-0.185-1.836-0.04
			c-0.628,0.145-1.183,0.439-1.634,0.837C45.169,11.117,45.911,11.372,46.652,11.202z"/>
		<path fill="#515151" d="M48.956,13.22c0.19,0.83,0.864,1.425,1.657,1.56c0.278-0.684,0.356-1.455,0.178-2.229
			c-0.139-0.611-0.424-1.151-0.808-1.595C49.189,11.384,48.744,12.302,48.956,13.22z"/>
		<path fill="#515151" d="M47.817,15.589c-0.751,0.172-1.31,0.737-1.512,1.426c0.536,0.125,1.109,0.133,1.683,0.001
			c0.664-0.153,1.246-0.474,1.71-0.908C49.216,15.646,48.517,15.428,47.817,15.589z"/>
		<path fill="#515151" d="M47.711,15.128c0.859-0.198,1.719,0.069,2.313,0.636c0.142-0.17,0.268-0.353,0.377-0.545
			c-0.919-0.207-1.684-0.919-1.908-1.895c-0.249-1.082,0.245-2.165,1.147-2.716c-0.308-0.273-0.658-0.494-1.038-0.653
			c-0.26,0.827-0.939,1.499-1.845,1.707c-0.906,0.208-1.811-0.1-2.406-0.729c-0.313,0.356-0.556,0.77-0.715,1.218
			c0.879,0.23,1.604,0.928,1.822,1.873c0.194,0.846-0.065,1.693-0.619,2.286c0.305,0.241,0.647,0.432,1.013,0.568
			C46.103,16.032,46.79,15.34,47.711,15.128z"/>
		<path fill="#515151" d="M44.997,14.129c-0.178-0.771-0.772-1.339-1.491-1.524c-0.112,0.518-0.116,1.068,0.011,1.618
			c0.16,0.694,0.504,1.298,0.97,1.771C44.941,15.513,45.156,14.821,44.997,14.129z"/>
	</g>
	<g>
		<path fill="#515151" d="M81.185,57.836c-2.288-0.83-4.6-0.295-5.302,1.188l8.61,3.123C84.903,60.559,83.474,58.666,81.185,57.836z
			"/>
		<path fill="#515151" d="M83.618,64.225c0.04,0.014,0.077,0.029,0.115,0.047l0.291-0.803l-8.63-3.131l-0.29,0.801
			c0.021,0.006,0.042,0.012,0.062,0.02c0.979,0.354,1.517,1.35,1.201,2.219c-0.316,0.871-1.365,1.289-2.346,0.936
			c-0.021-0.008-0.039-0.018-0.06-0.025l-4.998,13.777c-0.168,0.463,1.627,1.539,4.01,2.404s4.45,1.189,4.619,0.727l5-13.781
			c-0.04-0.012-0.08-0.021-0.119-0.037c-0.979-0.355-1.517-1.348-1.201-2.221C81.59,64.287,82.639,63.869,83.618,64.225z"/>
		<path fill="#515151" d="M81.438,57.135c0.376,0.137,0.792-0.057,0.928-0.434l0.225-0.617c0.136-0.375-0.059-0.791-0.434-0.928
			c-0.376-0.137-0.791,0.059-0.928,0.434l-0.224,0.619C80.869,56.584,81.063,57,81.438,57.135z"/>
	</g>
	<g>
		<path fill="#515151" d="M81.672,18.018c0.57-1.108,0.448-2.316-0.258-2.77l-2.146,4.17C80.048,19.729,81.102,19.126,81.672,18.018
			z"/>
		<path fill="#515151" d="M78.271,18.839c-0.011,0.019-0.021,0.037-0.032,0.055l0.389,0.2l2.15-4.179l-0.388-0.2
			c-0.005,0.01-0.009,0.021-0.013,0.031c-0.244,0.475-0.785,0.683-1.206,0.466c-0.423-0.217-0.566-0.777-0.322-1.251
			c0.005-0.01,0.012-0.02,0.017-0.029l-6.674-3.434c-0.224-0.115-0.887,0.727-1.481,1.881c-0.594,1.154-0.893,2.183-0.668,2.299
			l6.674,3.434c0.008-0.02,0.017-0.039,0.026-0.058c0.244-0.474,0.783-0.682,1.206-0.465C78.37,17.804,78.515,18.365,78.271,18.839z
			"/>
		<path fill="#515151" d="M82.011,18.192c-0.093,0.182-0.022,0.406,0.16,0.499l0.3,0.154c0.183,0.094,0.406,0.022,0.499-0.16
			c0.094-0.182,0.021-0.405-0.16-0.499l-0.299-0.155C82.329,17.938,82.105,18.01,82.011,18.192z"/>
	</g>
	<g>
		<path fill="#515151" d="M10.38,48.78c-0.722-0.262-1.452-0.093-1.674,0.375l2.718,0.987C11.555,49.64,11.103,49.042,10.38,48.78z"
			/>
		<path fill="#515151" d="M11.149,50.797c0.012,0.006,0.024,0.011,0.036,0.016l0.092-0.254L8.552,49.57L8.46,49.822
			c0.006,0.003,0.013,0.005,0.02,0.007c0.309,0.112,0.479,0.426,0.379,0.7c-0.1,0.275-0.431,0.408-0.74,0.295
			C8.112,50.822,8.106,50.82,8.1,50.816l-1.579,4.352c-0.053,0.146,0.515,0.486,1.267,0.76c0.753,0.273,1.406,0.375,1.459,0.23
			l1.579-4.354c-0.012-0.004-0.025-0.008-0.038-0.012c-0.309-0.111-0.479-0.426-0.379-0.701
			C10.508,50.816,10.84,50.686,11.149,50.797z"/>
		<path fill="#515151" d="M10.461,48.559c0.119,0.043,0.25-0.018,0.292-0.136l0.071-0.195c0.043-0.119-0.019-0.25-0.137-0.293
			s-0.25,0.018-0.292,0.137l-0.071,0.195C10.281,48.385,10.342,48.516,10.461,48.559z"/>
	</g>
	<g>
		<path fill="#515151" d="M31.336,7.219c-1.167,0.976-1.605,2.394-1.024,3.239l4.394-3.672C33.977,6.065,32.504,6.244,31.336,7.219z
			"/>
		<path fill="#515151" d="M35.554,7.912c0.021-0.017,0.042-0.032,0.062-0.047l-0.342-0.41l-4.405,3.681l0.341,0.408
			c0.01-0.008,0.02-0.018,0.03-0.027c0.5-0.417,1.206-0.396,1.578,0.049c0.371,0.444,0.267,1.143-0.232,1.561
			c-0.011,0.009-0.022,0.017-0.033,0.025l5.877,7.032c0.197,0.236,1.343-0.396,2.56-1.413c1.216-1.017,2.042-2.032,1.845-2.269
			l-5.878-7.033c-0.019,0.017-0.038,0.035-0.058,0.052c-0.499,0.417-1.206,0.396-1.577-0.049C34.95,9.028,35.054,8.329,35.554,7.912
			z"/>
		<path fill="#515151" d="M31.038,6.862c0.191-0.161,0.217-0.445,0.057-0.637l-0.263-0.316c-0.161-0.192-0.446-0.217-0.638-0.057
			c-0.191,0.161-0.217,0.446-0.057,0.638L30.4,6.804C30.561,6.996,30.846,7.022,31.038,6.862z"/>
	</g>
	<g>
		<path fill="#515151" d="M31.573,22.604c-1.281,0.908-7.832,5.537-8.899,6.04c-0.532,0.25-0.925,0.091-1.16-0.003
			c-0.03-0.012-0.066-0.027-0.095-0.037c-0.088,0.118-0.261,0.521-0.553,1.836c-0.259,1.166-1.559,2.259-3.283,3.161
			c-1.404,0.734-3.09,1.34-4.728,1.755c-2.774,0.702-6.116,1.004-7.408-0.175c-0.06,0.45,0.245,1.175,2.585,2.036
			c3.228,1.187,10.831-3.427,10.831-3.427c0.75-0.379,3.929-3.252,7.249-4.158c3.319-0.906,6.237-3.26,6.237-3.26
			C33.638,22.952,32.313,22.739,31.573,22.604z"/>
		<path fill="#515151" d="M12.674,34.642c3.993-1.01,7.136-2.845,7.474-4.363c0.397-1.785,0.622-2.18,0.947-2.352c0,0,0,0,0.001,0
			c0.269-0.141,0.515-0.042,0.694,0.031c0.192,0.077,0.33,0.133,0.571,0.02c0.869-0.408,6.119-4.08,8.878-6.038
			c-0.024-1.687-2.876-8.397-3.095-7.237c-0.236,1.25-1.704,3.202-4.727,2.293c-0.789-0.237-1.575-0.361-2.333-0.365
			c0.239,0.187,0.502,0.396,0.765,0.612c0.495,0.409,0.881,0.756,1.148,1.032c0.264,0.273,0.755,0.78,0.468,1.271
			c-0.109,0.186-0.365,0.424-1.327,1.283c-0.7,0.625-2.154,1.924-2.774,2.666c0.417-0.12,0.981-0.346,1.341-0.489
			c1.032-0.412,1.589-0.62,1.992-0.489l-0.326,0.999c0.035,0.011,0.058,0.012,0.059,0.012c-0.19-0.003-0.879,0.272-1.336,0.455
			c-1.341,0.535-2.499,0.998-2.955,0.259c-0.404-0.654,0.212-1.438,3.299-4.195c0.353-0.314,0.739-0.66,0.962-0.874
			c-0.408-0.479-1.688-1.533-2.833-2.376c-1.512,0.358-2.807,1.3-3.619,2.918c-1.451,2.892-1.606,8.602-5.474,10.387
			c-3.025,1.396-4.313,3.479-4.73,4.32c0.036,0.042,0.073,0.085,0.113,0.131C6.63,35.443,9.37,35.479,12.674,34.642z"/>
		<path fill="#515151" d="M6.104,32.506c0.11-0.23,0.771-0.749,1.63-1.378c-0.971-0.622-1.496-1.374-1.558-2.238
			c-0.125-1.735,1.72-3.199,1.798-3.26l0.259,0.331l0.259,0.331c-0.016,0.013-1.572,1.252-1.478,2.542
			c0.046,0.64,0.515,1.219,1.393,1.722l-0.084,0.146c0.78-0.56,1.646-1.172,2.391-1.731c1.831-1.372,3.324-5.885,3.324-5.885
			s-0.654,0.224-1.987,0.505c-1.334,0.283-5.475,1.203-7.447,3.893s1,4.859,1,4.859C5.73,32.443,6.104,32.506,6.104,32.506z"/>
	</g>
	<g>
		<path fill="#515151" d="M67.878,81.475c-0.509,0.361-3.113,2.201-3.538,2.4c-0.211,0.1-0.367,0.037-0.46,0
			c-0.012-0.006-0.027-0.012-0.038-0.016c-0.035,0.045-0.104,0.207-0.22,0.73c-0.104,0.463-0.619,0.896-1.307,1.256
			c-0.558,0.291-1.228,0.533-1.878,0.697c-1.104,0.279-2.432,0.4-2.945-0.07c-0.022,0.18,0.098,0.467,1.027,0.811
			c1.284,0.471,4.306-1.361,4.306-1.361c0.299-0.152,1.562-1.293,2.882-1.654c1.319-0.359,2.479-1.295,2.479-1.295
			C68.698,81.613,68.172,81.527,67.878,81.475z"/>
		<path fill="#515151" d="M60.365,86.26c1.588-0.402,2.837-1.131,2.972-1.734c0.157-0.709,0.246-0.867,0.376-0.934
			c0,0,0,0,0.001-0.002c0.106-0.055,0.204-0.016,0.275,0.012c0.076,0.031,0.131,0.055,0.227,0.01c0.346-0.162,2.433-1.621,3.529-2.4
			c-0.01-0.672-1.143-3.338-1.23-2.877c-0.093,0.496-0.678,1.271-1.879,0.912c-0.313-0.096-0.626-0.145-0.928-0.146
			c0.096,0.074,0.2,0.158,0.304,0.244c0.197,0.162,0.351,0.301,0.458,0.41c0.104,0.109,0.3,0.311,0.186,0.506
			c-0.044,0.072-0.145,0.168-0.527,0.51c-0.278,0.248-0.856,0.764-1.103,1.061c0.166-0.049,0.39-0.139,0.533-0.195
			c0.41-0.164,0.632-0.248,0.792-0.195l-0.13,0.396c0.014,0.006,0.022,0.006,0.022,0.006c-0.075-0.002-0.35,0.109-0.53,0.18
			c-0.534,0.215-0.993,0.396-1.175,0.104c-0.161-0.26,0.085-0.572,1.312-1.668c0.14-0.125,0.294-0.262,0.382-0.346
			c-0.162-0.191-0.671-0.611-1.126-0.945c-0.601,0.143-1.116,0.516-1.438,1.16c-0.578,1.148-0.64,3.418-2.177,4.129
			c-1.202,0.555-1.714,1.383-1.881,1.717c0.015,0.018,0.029,0.035,0.046,0.053C57.964,86.578,59.052,86.592,60.365,86.26z"/>
		<path fill="#515151" d="M57.753,85.41c0.045-0.092,0.307-0.297,0.648-0.547c-0.387-0.248-0.595-0.547-0.619-0.891
			c-0.051-0.689,0.684-1.271,0.715-1.297l0.103,0.133l0.104,0.131c-0.008,0.006-0.625,0.498-0.588,1.01
			c0.019,0.256,0.205,0.484,0.554,0.686l-0.032,0.059c0.31-0.223,0.652-0.467,0.949-0.689c0.729-0.545,1.32-2.338,1.32-2.338
			s-0.259,0.088-0.789,0.201c-0.53,0.111-2.176,0.477-2.96,1.545c-0.783,1.07,0.397,1.934,0.397,1.934
			C57.604,85.387,57.753,85.41,57.753,85.41z"/>
	</g>
	<g>
		<path fill="#515151" d="M94.77,64.949c-0.519-0.729-3.157-4.465-3.442-5.072c-0.145-0.303-0.054-0.527,0.002-0.662
			c0.006-0.016,0.014-0.037,0.021-0.053c-0.068-0.051-0.298-0.15-1.046-0.316c-0.665-0.146-1.288-0.887-1.804-1.871
			c-0.418-0.801-0.764-1.762-1-2.695c-0.4-1.582-0.572-3.487,0.1-4.224c-0.256-0.032-0.67,0.14-1.16,1.476
			c-0.677,1.84,1.953,6.172,1.953,6.172c0.217,0.43,1.854,2.24,2.37,4.133c0.517,1.893,1.858,3.555,1.858,3.555
			C94.571,66.127,94.692,65.371,94.77,64.949z"/>
		<path fill="#515151" d="M87.906,54.176c0.576,2.277,1.622,4.068,2.487,4.26c1.018,0.229,1.243,0.355,1.341,0.541l0,0
			c0.08,0.154,0.023,0.295-0.018,0.396c-0.044,0.109-0.076,0.188-0.011,0.324c0.231,0.496,2.326,3.488,3.441,5.062
			c0.962-0.016,4.787-1.639,4.126-1.764c-0.713-0.137-1.825-0.973-1.308-2.695c0.135-0.449,0.205-0.898,0.208-1.33
			c-0.105,0.137-0.227,0.285-0.35,0.436c-0.232,0.283-0.431,0.502-0.589,0.654c-0.154,0.152-0.444,0.432-0.724,0.266
			c-0.105-0.061-0.242-0.207-0.731-0.754c-0.355-0.4-1.096-1.229-1.52-1.582c0.068,0.238,0.196,0.561,0.278,0.764
			c0.235,0.588,0.354,0.906,0.279,1.137l-0.569-0.186c-0.006,0.02-0.006,0.033-0.006,0.033c0-0.109-0.156-0.502-0.261-0.762
			c-0.305-0.764-0.567-1.424-0.147-1.686c0.373-0.229,0.82,0.121,2.392,1.881c0.181,0.201,0.377,0.422,0.498,0.549
			c0.273-0.232,0.874-0.961,1.354-1.615c-0.204-0.861-0.741-1.6-1.663-2.062c-1.647-0.826-4.903-0.916-5.921-3.119
			c-0.796-1.727-1.983-2.46-2.462-2.697c-0.025,0.021-0.05,0.043-0.076,0.064C87.45,50.73,87.43,52.293,87.906,54.176z"/>
		<path fill="#515151" d="M89.124,50.432c0.131,0.061,0.427,0.438,0.785,0.928c0.355-0.553,0.784-0.853,1.276-0.887
			c0.989-0.072,1.823,0.98,1.857,1.025l-0.188,0.146l-0.188,0.146c-0.007-0.008-0.714-0.895-1.449-0.842
			c-0.365,0.027-0.695,0.295-0.981,0.795l-0.083-0.049c0.32,0.443,0.669,0.939,0.986,1.363c0.782,1.043,3.355,1.895,3.355,1.895
			s-0.127-0.373-0.289-1.133c-0.16-0.76-0.685-3.121-2.218-4.244c-1.533-1.125-2.77,0.568-2.77,0.568
			C89.16,50.218,89.124,50.432,89.124,50.432z"/>
	</g>
</g>
<g>
	
		<line fill="none" stroke="#4675B8" stroke-width="0.0712" stroke-miterlimit="10" x1="34.296" y1="48.133" x2="34.296" y2="48.133"/>
	<g>
		<g>
			<path fill="#FFFFFF" d="M8.454,44.37v-0.895l-0.642-0.641h-2.06l-0.659,0.641v0.811H2.425v-1.908l2.212-2.229h4.272l2.212,2.229
				v3.327L5.093,50.18v0.675h6.028v2.666H2.425v-4.692L8.454,44.37z"/>
		</g>
		<g>
			<path fill="#FFFFFF" d="M21.523,42.361v8.952l-2.212,2.209h-4.289l-2.212-2.209v-8.952l2.212-2.212h4.289L21.523,42.361z
				 M15.495,43.475v6.721l0.641,0.66h2.06l0.642-0.66v-6.721l-0.642-0.641h-2.06L15.495,43.475z"/>
		</g>
		<g>
			<path fill="#FFFFFF" d="M86.721,53.521h-2.668V44.1h-1.098v-1.571l0.102-0.033c0.598-0.158,1.055-0.442,1.377-0.853
				c0.32-0.411,0.521-0.864,0.6-1.359l0.018-0.135h1.674v13.373H86.721L86.721,53.521z"/>
		</g>
		<g>
			<path fill="#FFFFFF" d="M96.145,49.116h1.015v2.667h-1.015v1.738h-2.686v-1.738h-3.936l-1.115-2.533l4.779-9.102h2.957V49.116
				L96.145,49.116z M93.459,45.383L91.5,49.116h1.959V45.383z"/>
		</g>
	</g>
	<circle fill="none" stroke="#FFFFFF" stroke-width="2.1375" stroke-miterlimit="10" cx="52.041" cy="45.026" r="29.977"/>
	<g>
		<path fill="#FFFFFF" d="M51.672,39.041l8.387-4.765c-0.146-0.928-0.854-4.378-2.091-6.627c-0.261-0.412-0.557-0.804-0.885-1.164
			c-1.528-0.723-3.249-1.089-5.112-1.089c-0.979,0-1.885,0.103-2.651,0.239c-0.793,0.146-1.59,0.354-2.387,0.626
			c-0.442,0.57-3.136,4.181-3.61,8.04L51.672,39.041z"/>
		<path fill="#FFFFFF" d="M76.467,40.316c-0.824-1.707-1.713-2.679-2.047-2.9c-0.424,0.332-1.523,0.973-2.635,1.593
			c-0.666,0.385-1.662,0.952-2.299,1.254c-0.014,0.007-0.027,0.015-0.041,0.022c0.131,0.541,0.412,1.822,0.557,3.428
			c0.246,2.691,0,4.958-0.723,6.747c0.414,0.157,0.854,0.372,1.294,0.621c1.747,0.94,3.257,2.207,3.815,2.698
			c2.811-2.322,3.355-6.642,3.36-6.688C78.032,44.272,77.208,41.85,76.467,40.316z"/>
		<path fill="#FFFFFF" d="M68.661,40.28c-0.474-0.564-1.781-1.995-3.913-3.365c-0.375-0.228-0.777-0.456-1.212-0.686
			c-1.253-0.661-2.341-1.102-2.868-1.301c-0.064-0.022-0.129-0.046-0.195-0.068l-8.443,4.798l0.027,10.546
			c0.035,0.033,0.076,0.068,0.121,0.106c1.176,0.866,5.312,3.418,8.045,5.065c1.119-0.332,2.123-0.734,3.019-1.164
			c1.837-0.891,3.231-1.919,4.128-2.677c0.631-0.546,1.012-0.958,1.143-1.107c0.107-0.295,0.4-1.199,0.58-2.623
			c0.202-1.59,0.299-4.166-0.373-7.46C68.695,40.322,68.678,40.299,68.661,40.28z"/>
		<path fill="#FFFFFF" d="M34.004,50.147c-0.359-0.935-1.262-4.077-0.095-9.882c-0.399-0.27-1.322-0.906-2.257-1.637
			c-0.77-0.588-1.501-1.191-1.885-1.625c-0.289,0.234-0.784,0.702-1.298,1.485c-1.34,2.042-1.774,4.617-1.903,6.418l-0.006,0.09
			c0,0.61,0.122,5.372,3.098,7.99L34.004,50.147z"/>
		<path fill="#FFFFFF" d="M57.941,25.997c-0.049,0.05-0.09,0.096-0.129,0.138c0.267,0.319,0.521,0.704,0.771,1.15
			c1.696,2.667,2.112,5.994,2.198,6.919c1.73,0.591,3.205,1.36,4.42,2.146c1.396,0.855,2.842,1.955,3.918,3.286
			c0.079-0.036,0.167-0.078,0.263-0.125c0.769-0.414,1.543-0.838,2.235-1.226c1.057-0.612,2.068-1.225,2.363-1.432
			c1.086-4.254-2.641-8.041-2.676-8.079l-0.033-0.033L71.25,28.7c-1.053-1.817-5.814-5.196-8.473-5.196
			c-0.135,0-0.26,0.009-0.377,0.026c-0.049,0.008-0.102,0.017-0.148,0.026c-0.363,0.076-0.707,0.177-1.033,0.294
			C59.766,24.406,58.527,25.448,57.941,25.997z"/>
		<path fill="#FFFFFF" d="M59.794,55.952c-1.265-0.739-6.583-3.872-8.063-5.093c-0.067-0.053-0.127-0.099-0.176-0.137
			c-0.936,0.678-4.446,3.163-8.071,5.176c0.035,0.973,0.189,1.955,0.457,2.934c0.725,2.375,2.068,4.5,2.507,5.158
			c0.029,0.041,0.059,0.084,0.089,0.126c0.195,0.097,0.402,0.185,0.622,0.263c0.679,0.232,1.893,0.521,3.725,0.525
			c1.874-0.006,3.722-0.307,4.882-0.539c0.355-0.074,0.717-0.156,1.084-0.244c0.308-0.447,1.525-2.322,2.322-5.061
			c0.332-1.181,0.502-2.176,0.581-2.763C59.768,56.184,59.781,56.068,59.794,55.952z"/>
		<path fill="#FFFFFF" d="M47.135,70.773c1.342,0.146,2.841,0.22,4.456,0.22c2.499,0,4.466-0.181,4.663-0.198
			c1.389-0.271,3.678-0.77,4.208-1.014l1.249-1.637c-0.014-0.006-0.027-0.016-0.043-0.021c-1.027-0.436-1.896-0.947-2.604-1.441
			c-0.789-0.522-1.572-1.147-2.139-1.844c-0.318,0.079-0.945,0.225-1.76,0.367c-1.52,0.273-2.939,0.411-4.249,0.411
			c-0.001,0-0.001,0-0.001,0c-0.016,0-0.027,0-0.043,0c-0.018,0-0.035,0-0.055,0l0,0c-1.489,0-2.763-0.177-3.805-0.533
			c-0.263-0.086-0.464-0.168-0.611-0.233c-0.666,0.77-1.832,1.486-2.853,2.021c-0.552,0.342-1.11,0.639-1.604,0.812
			c0.163,0.293,0.454,0.739,0.918,1.2C43.936,69.947,45.372,70.583,47.135,70.773z"/>
		<path fill="#FFFFFF" d="M34.959,40.42c-0.221,0.889-1.418,6.133,0.15,9.789c0.195,0.22,0.875,0.948,2.022,1.803
			c1.22,0.909,3.227,2.15,5.944,2.979c0.592-0.349,2.092-1.233,3.639-2.181c2.838-1.737,3.854-2.473,4.218-2.771l0.025-10.176
			l-8.126-4.615C41.652,35.695,37.235,37.509,34.959,40.42z"/>
		<path fill="#FFFFFF" d="M33.075,62.104c0.059,0.072,1.017,1.203,2.5,2.365c1.374,1.076,3.492,2.396,5.814,2.625
			c0.239-0.098,0.993-0.417,1.841-0.859c0.332-0.207,0.69-0.446,1.071-0.721c0.648-0.467,1.21-0.916,1.518-1.17
			c-1.182-1.676-2.036-3.436-2.536-5.211c-0.32-1.033-0.535-2.125-0.531-3.188c-1.219-0.467-6.578-2.629-8.406-5.172l-4.408,2.879
			c-0.061,0.264-0.184,1.006,0.013,2.146C30.182,57.143,30.911,59.327,33.075,62.104z"/>
		<path fill="#FFFFFF" d="M70.779,62.523l0.014-0.016c0.041-0.043,4.068-4.35,3.26-8.068c-0.4-0.338-2.109-1.758-3.75-2.693
			c-0.457-0.252-0.932-0.479-1.404-0.66c-0.188,0.199-0.537,0.543-1.031,0.969c-0.885,0.771-2.238,1.778-4.072,2.688
			c-0.975,0.482-2.068,0.936-3.289,1.295c-0.02,0.164-0.045,0.398-0.09,0.695c-0.128,0.871-0.312,1.689-0.523,2.444
			c-0.438,1.577-1.168,3.49-2.373,5.243c0.275,0.303,0.883,0.91,1.789,1.568c1.307,0.888,2.691,1.506,3.023,1.647
			C62.9,67.566,67.039,66.908,70.779,62.523z"/>
		<path fill="#FFFFFF" d="M41.519,23.091c-3.289,0-7.704,4.381-7.995,4.674c-3.863,5.082-3.45,8.103-3.353,8.575
			c0.454,0.522,1.167,1.133,1.885,1.696c0.612,0.469,1.354,1.012,2.203,1.599c3.142-3.228,7.196-4.843,8.288-5.237
			c0.364-3.978,3.227-7.813,3.8-8.546c-0.072-0.319-0.394-0.686-0.924-1.066c-0.331-0.227-0.74-0.463-1.22-0.7
			c-1.075-0.53-2.18-0.911-2.396-0.984C41.713,23.095,41.616,23.091,41.519,23.091z"/>
		<path fill="#FFFFFF" d="M59.023,20.283c-0.24-0.082-2.828-0.928-6.646-0.928c-2.686,0-5.358,0.411-7.943,1.221
			c-0.17,0.089-1.374,0.745-2.054,1.967c0.457,0.159,1.249,0.454,2.053,0.846c0.632,0.309,1.149,0.615,1.552,0.921
			c0.539,0.396,0.877,0.782,1.017,1.166c0.489-0.164,1.375-0.423,2.513-0.601c0.826-0.134,1.646-0.203,2.456-0.203
			c2.694,0,4.536,0.737,5.217,1.061c0.061-0.06,0.137-0.136,0.229-0.226c0.597-0.63,1.837-1.738,3.657-2.364
			c0.285-0.104,0.578-0.189,0.879-0.253c-0.076-0.164-0.194-0.378-0.377-0.623C61.191,21.75,60.438,20.987,59.023,20.283z"/>
	</g>
	<g>
		<path id="Výplň_2_" fill="#FFFFFF" d="M24.726,31.226c0,0,0.367,0.029,1.389-0.932c1.021-0.96,5.043-1.8,5.043-1.8l3.774-0.343
			l2.604,0.031l4.088,0.104l6.095,0.122l1.199,0.474l4.689,0.281l7.082,0.509l1.312,0.138l4.305-0.606l1.521-0.386
			c0,0,0.233,0.006,0.547-0.585c0.312-0.59,0.078-1.001,0.078-1.001l-0.063-0.156l-0.203-0.28l-0.168,0.156l-0.11-0.01l-1.041,0.249
			l-0.781,0.23l1.729-0.457l0.402-0.377l-0.05-0.329l-0.024-0.598l-0.146-0.365l-0.111-0.035l-0.08-0.344l-0.544-0.636l-2.936-1.372
			l-2.496-1.5l-1.537-1.777l-0.386-0.424l-2.071-0.086l-1.688-1.445l-2.182-1.188l-3.093,0.174l-7.547,0.907l-3.854,1.033
			l-2.452,0.753l-5.154,2.057l-3.185,2.535l-0.741,0.483l-0.961,1.126c0,0-2.961,4.625-4.077,8.163
			c0.047,0.484,0.522-0.712,0.522-0.712L24.726,31.226z"/>
		<g>
			<path fill="#2A2A2A" d="M26.483,26.292c0.262-0.567,0.646-1.063,1.038-1.545c0.399-0.479,0.842-0.917,1.303-1.338
				c0.487-0.385,0.95-0.81,1.474-1.147c0.515-0.351,1.022-0.717,1.575-1.003c0.542-0.309,1.083-0.616,1.654-0.864
				c0.567-0.255,1.118-0.552,1.705-0.756c0.581-0.222,1.158-0.455,1.745-0.66l1.787-0.528c0.59-0.194,1.198-0.32,1.806-0.446
				l1.818-0.389l1.836-0.282c0.613-0.083,1.22-0.208,1.835-0.271l1.843-0.205c0.616-0.055,1.226-0.167,1.842-0.204l3.697-0.297
				l-0.01,0.001c0.502-0.016,0.938,0.122,1.357,0.306c0.427,0.169,0.812,0.417,1.186,0.673c0.368,0.264,0.728,0.542,1.049,0.858
				c0.336,0.299,0.642,0.632,0.984,0.76c0.18,0.077,0.373,0.114,0.561,0.111c0.16,0,0.395-0.083,0.658-0.073
				c0.512-0.025,1.035,0.214,1.375,0.58c0.344,0.362,0.558,0.785,0.766,1.169c0.203,0.415,0.402,0.628,0.795,0.845
				c0.734,0.427,1.561,0.762,2.375,1.084c0.418,0.168,0.807,0.294,1.247,0.485c0.413,0.179,0.821,0.361,1.228,0.581
				c0.2,0.114,0.409,0.225,0.621,0.424c0.182,0.194,0.309,0.408,0.422,0.608c0.225,0.416,0.414,0.834,0.495,1.346
				c0.013,0.133,0.027,0.269-0.018,0.441c-0.013,0.162-0.22,0.39-0.394,0.433c-0.215,0.068-0.41,0.149-0.65,0.197
				c-0.473,0.112-0.896,0.166-1.323,0.254l-0.019,0.003h-0.004c-1.922,0.218-3.845,0.333-5.772,0.303
				c-0.963-0.023-1.931-0.075-2.884-0.242c-0.938-0.186-1.934-0.418-2.663-1.083l0.038-0.042c0.746,0.601,1.729,0.77,2.658,0.896
				c0.943,0.109,1.896,0.146,2.852,0.133c1.906-0.031,3.816-0.209,5.697-0.484l-0.021,0.004c0.438-0.104,0.896-0.184,1.282-0.29
				c0.194-0.037,0.412-0.124,0.621-0.192c0.032-0.029,0.004,0.023,0.022-0.04c0.017-0.042,0.012-0.133,0.002-0.219
				c-0.058-0.367-0.23-0.774-0.434-1.134c-0.104-0.184-0.21-0.353-0.333-0.483c-0.112-0.104-0.295-0.211-0.479-0.313
				c-0.377-0.2-0.778-0.378-1.183-0.55c-0.372-0.164-0.831-0.307-1.233-0.48c-0.826-0.343-1.648-0.687-2.442-1.162l-0.298-0.199
				c-0.104-0.083-0.227-0.176-0.287-0.254c-0.189-0.213-0.284-0.417-0.396-0.617c-0.205-0.397-0.397-0.776-0.666-1.064
				c-0.266-0.282-0.608-0.453-0.992-0.452c-0.184-0.022-0.381,0.048-0.664,0.051c-0.258-0.005-0.506-0.063-0.73-0.168
				c-0.486-0.215-0.771-0.587-1.089-0.877c-0.304-0.318-0.638-0.595-0.979-0.859c-0.35-0.256-0.711-0.505-1.104-0.675
				c-0.378-0.188-0.813-0.323-1.2-0.326l-0.011,0.001L49.76,16.84c-0.616,0.031-1.227,0.124-1.838,0.197l-1.834,0.236
				c-0.613,0.067-1.213,0.215-1.819,0.327l-1.812,0.358c-1.188,0.322-2.391,0.582-3.561,0.954l-1.758,0.545l-1.724,0.639
				c-0.583,0.193-1.128,0.475-1.69,0.717c-0.567,0.235-1.103,0.528-1.64,0.823c-0.548,0.276-1.063,0.604-1.581,0.93
				c-0.529,0.31-0.996,0.708-1.491,1.067c-0.462,0.399-0.935,0.79-1.356,1.235c-0.416,0.446-0.828,0.911-1.123,1.45L26.483,26.292z"
				/>
		</g>
		<g>
			<path fill="#2A2A2A" d="M22.679,35.736c-0.003-0.911,0.148-1.85,0.543-2.7c0.398-0.847,1.009-1.59,1.728-2.188
				c1.464-1.187,3.265-1.831,5.056-2.241c1.807-0.396,3.651-0.527,5.484-0.524c1.834,0.009,3.66,0.1,5.482,0.298l-0.037,0.003
				c0.439-0.063,0.825-0.069,1.238-0.094l1.221-0.049c0.814-0.032,1.629-0.052,2.447-0.044c0.409,0.004,0.818,0.015,1.23,0.046
				c0.207,0.015,0.413,0.035,0.625,0.072c0.106,0.019,0.211,0.039,0.329,0.081c0.13,0.046,0.222,0.118,0.282,0.127
				c0.334,0.107,0.754,0.16,1.146,0.207c0.399,0.045,0.801,0.079,1.205,0.107c0.806,0.061,1.615,0.105,2.425,0.135
				c0.817,0.035,1.604,0.039,2.429,0.038c0.848,0.038,1.646,0.13,2.459,0.207l2.43,0.262l0.021,0.002l0.038,0.01
				c0.563,0.155,1.281,0.113,1.944,0.081c0.68-0.047,1.357-0.131,2.037-0.231c0.679-0.099,1.354-0.223,2.029-0.347
				c0.316-0.061,0.67-0.143,1.002-0.213l0.213-0.09l0.188-0.125c0.124-0.096,0.235-0.201,0.339-0.322l-0.015,0.024
				c0.028-0.063,0.063-0.125,0.089-0.188c0.025-0.073,0.049-0.114,0.064-0.192c0.043-0.151,0.062-0.272,0.057-0.41
				c-0.002-0.145-0.032-0.264-0.098-0.404c-0.059-0.137-0.143-0.242-0.246-0.343l0.031-0.047c0.125,0.085,0.245,0.206,0.32,0.335
				c0.079,0.119,0.152,0.285,0.173,0.438c0.03,0.157,0.022,0.337,0.004,0.475c-0.002,0.071-0.032,0.169-0.051,0.238
				c-0.021,0.077-0.056,0.149-0.08,0.225L68.461,28.4l-0.011,0.015c-0.111,0.149-0.246,0.288-0.392,0.409
				c-0.082,0.057-0.107,0.091-0.235,0.167c-0.089,0.041-0.128,0.071-0.259,0.121l-1.01,0.269c-0.676,0.167-1.354,0.3-2.037,0.425
				c-0.686,0.122-1.371,0.229-2.068,0.3c-0.703,0.053-1.393,0.137-2.17-0.069l0.058,0.012c-1.606-0.17-3.252-0.333-4.828-0.447
				c-0.804-0.013-1.643-0.032-2.45-0.081c-0.813-0.046-1.629-0.1-2.442-0.182c-0.407-0.044-0.814-0.093-1.221-0.155
				c-0.412-0.069-0.805-0.122-1.241-0.28c-0.136-0.051-0.207-0.114-0.269-0.134c-0.073-0.03-0.167-0.054-0.261-0.073
				c-0.188-0.04-0.385-0.067-0.584-0.089c-0.397-0.044-0.802-0.071-1.206-0.09c-0.809-0.039-1.621-0.052-2.433-0.052
				c-0.406-0.003-0.812,0.011-1.218,0.023c-0.398,0.015-0.828,0.024-1.195,0.069l-0.03,0.003H40.95
				c-1.806-0.207-3.637-0.251-5.451-0.156c-1.814,0.1-3.623,0.305-5.383,0.696c-1.753,0.385-3.493,0.98-4.917,2.059
				c-0.708,0.536-1.316,1.208-1.733,1.997c-0.439,0.781-0.661,1.672-0.73,2.581L22.679,35.736z"/>
		</g>
		<g>
			<path fill="#2A2A2A" d="M47.497,28.418c0,0-0.207-0.037-0.552-0.167c-0.346-0.125-0.829-0.347-1.355-0.717
				c-0.264-0.184-0.543-0.4-0.801-0.677c-0.274-0.257-0.519-0.587-0.743-0.942c-0.205-0.372-0.418-0.764-0.511-1.216
				c-0.074-0.217-0.111-0.443-0.118-0.675c-0.014-0.229-0.045-0.463-0.039-0.692c0.088-0.445,0.088-0.925,0.273-1.326
				c0.147-0.415,0.298-0.825,0.531-1.159c0.22-0.341,0.404-0.697,0.66-0.959c0.24-0.276,0.479-0.526,0.698-0.752
				c0.204-0.241,0.453-0.399,0.651-0.56c0.205-0.151,0.383-0.283,0.53-0.392c0.298-0.21,0.473-0.319,0.473-0.319
				s-0.106,0.185-0.302,0.489c-0.1,0.148-0.221,0.329-0.359,0.536c-0.135,0.207-0.314,0.418-0.454,0.685
				c-0.148,0.261-0.309,0.54-0.49,0.822c-0.193,0.278-0.284,0.622-0.457,0.933c-0.187,0.312-0.237,0.672-0.362,1.011
				c-0.151,0.339-0.111,0.703-0.185,1.052c-0.011,0.175,0.013,0.35,0.014,0.524c-0.006,0.177,0.016,0.349,0.07,0.515
				c0.05,0.166,0.064,0.34,0.121,0.502c0.064,0.161,0.127,0.321,0.189,0.478c0.161,0.297,0.299,0.61,0.498,0.868
				c0.184,0.269,0.376,0.516,0.57,0.737c0.388,0.438,0.75,0.793,1.018,1.028C47.332,28.288,47.497,28.418,47.497,28.418z"/>
		</g>
		<g>
			<path fill="#2A2A2A" d="M48.132,20.034c0,0-0.083,0.21-0.188,0.583c-0.106,0.371-0.261,0.897-0.338,1.537
				c-0.066,0.316-0.053,0.664-0.084,1.027c0.019,0.362-0.015,0.755,0.08,1.151c0.022,0.204,0.064,0.408,0.158,0.597
				c0.083,0.192,0.151,0.399,0.273,0.577c0.258,0.347,0.517,0.702,0.886,0.949c0.175,0.132,0.337,0.273,0.516,0.393l0.561,0.321
				c0.352,0.238,0.74,0.402,1.12,0.554c0.372,0.164,0.728,0.329,1.09,0.438c0.354,0.12,0.688,0.249,0.996,0.369
				c0.308,0.122,0.608,0.173,0.862,0.266c0.26,0.083,0.483,0.154,0.67,0.213c0.371,0.134,0.584,0.21,0.584,0.21l-0.01,0.057
				c0,0-0.226-0.009-0.617-0.043c-0.196-0.021-0.437-0.047-0.709-0.077c-0.271-0.035-0.584-0.059-0.912-0.146
				c-0.329-0.084-0.688-0.175-1.062-0.289c-0.382-0.088-0.759-0.269-1.142-0.463c-0.386-0.187-0.785-0.38-1.143-0.667l-0.549-0.405
				c-0.167-0.157-0.315-0.339-0.472-0.505c-0.338-0.313-0.548-0.729-0.818-1.083c-0.126-0.184-0.199-0.397-0.312-0.586
				c-0.114-0.191-0.206-0.389-0.267-0.597c-0.169-0.404-0.242-0.822-0.284-1.225c0.005-0.399,0.021-0.782,0.107-1.12
				c0.138-0.684,0.395-1.206,0.597-1.549c0.201-0.346,0.358-0.514,0.358-0.514L48.132,20.034z"/>
		</g>
		
			<ellipse transform="matrix(-0.9603 0.2789 -0.2789 -0.9603 113.3237 27.3927)" fill="#FFFFFF" stroke="#2A2A2A" stroke-width="0.4275" stroke-miterlimit="10" cx="54.713" cy="21.757" rx="1.419" ry="1.638"/>
		<path fill="none" stroke="#2A2A2A" stroke-width="0.0712" stroke-miterlimit="10" d="M55.486,20.644c0,0,1.1,1.551,2.365,1.833
			c1.265,0.282,6.963,1.891,6.979,2.268"/>
		<path fill="none" stroke="#2A2A2A" stroke-width="0.0712" stroke-miterlimit="10" d="M61.2,20.798c0,0,0.46,1.909,4.905,3.481"/>
		<g>
			<path fill="#FFFFFF" d="M43.297,26.975c0.174,0.055,1.286,0.258,1.031,0.648s-3.811,3.74-4.526,3.632
				c-0.716-0.108-4.786-1.611-3.067-2.584c1.718-0.973,5.656-1.011,5.703-1.394C42.484,26.896,43.297,26.975,43.297,26.975z"/>
			<path fill="#2A2A2A" d="M43.3,26.961c0,0,0.074,0.018,0.209,0.05c0.135,0.034,0.337,0.078,0.58,0.183
				c0.107,0.061,0.283,0.116,0.314,0.316c-0.026,0.214-0.175,0.288-0.287,0.446c-0.243,0.272-0.521,0.574-0.842,0.887
				c-0.637,0.629-1.43,1.315-2.365,1.941c-0.234,0.156-0.479,0.304-0.746,0.429c-0.126,0.057-0.299,0.115-0.447,0.071
				c-0.141-0.029-0.286-0.079-0.426-0.118c-0.563-0.171-1.124-0.381-1.664-0.646c-0.269-0.134-0.538-0.271-0.786-0.449
				c-0.244-0.174-0.507-0.368-0.622-0.712c-0.06-0.167-0.005-0.386,0.107-0.514c0.1-0.15,0.245-0.216,0.373-0.312
				c0.251-0.142,0.533-0.258,0.798-0.351c1.083-0.354,2.125-0.494,3.012-0.594c0.443-0.046,0.85-0.089,1.21-0.127
				c0.343-0.07,0.717-0.042,0.773-0.347c0.232-0.184,0.455-0.15,0.591-0.164C43.224,26.95,43.3,26.961,43.3,26.961z M43.295,26.989
				c0,0-0.072-0.008-0.211-0.001c-0.128,0.011-0.365,0.011-0.544,0.159c-0.049,0.033-0.05,0.109-0.091,0.183
				c-0.06,0.072-0.135,0.093-0.21,0.125c-0.152,0.055-0.319,0.095-0.497,0.135c-0.356,0.078-0.759,0.157-1.198,0.235
				c-0.874,0.167-1.91,0.299-2.952,0.639c-0.464,0.167-1.206,0.391-1.129,0.838c0.054,0.223,0.275,0.44,0.5,0.609
				c0.224,0.18,0.48,0.328,0.736,0.473c0.52,0.279,1.069,0.508,1.619,0.698c0.577,0.319,1.065-0.092,1.503-0.421
				c0.872-0.686,1.626-1.4,2.302-1.979c0.332-0.296,0.645-0.559,0.905-0.81c0.107-0.118,0.291-0.25,0.296-0.361
				c0.001-0.127-0.152-0.215-0.258-0.268c-0.232-0.109-0.432-0.159-0.565-0.197C43.365,27.008,43.295,26.989,43.295,26.989z"/>
		</g>
		<circle fill="#2A2A2A" cx="54.84" cy="22.248" r="0.439"/>
		<g>
			<g>
				<path fill="#2A2A2A" d="M43.307,27.187c0,0-0.111,0.022-0.28,0.12c-0.083,0.046-0.187,0.13-0.158,0.276
					c-0.021,0.149-0.195,0.222-0.342,0.282c-0.16,0.066-0.346,0.064-0.53,0.109c-0.188,0.037-0.386,0.075-0.592,0.115
					c-0.409,0.087-0.845,0.18-1.281,0.272c-0.871,0.192-1.733,0.419-2.372,0.613c-0.317,0.101-0.58,0.202-0.738,0.313
					c-0.075,0.054-0.132,0.124-0.104,0.174c0.023,0.042,0.048,0.06,0.045,0.061c0.002,0.001,0.002,0.003,0.001,0.005
					s-0.003,0.002-0.005,0.001c0.002-0.001-0.024-0.018-0.051-0.063c-0.033-0.057,0.027-0.134,0.102-0.192
					c0.158-0.121,0.418-0.231,0.733-0.344c0.63-0.234,1.503-0.433,2.375-0.624c0.438-0.088,0.875-0.175,1.286-0.257
					c0.206-0.037,0.405-0.073,0.594-0.107c0.19-0.042,0.375-0.038,0.527-0.1c0.147-0.057,0.313-0.127,0.333-0.26
					c-0.028-0.146,0.086-0.246,0.169-0.286c0.172-0.096,0.284-0.116,0.284-0.116c0.002,0,0.004,0,0.004,0.002
					C43.31,27.184,43.309,27.186,43.307,27.187z"/>
			</g>
			<path fill="none" stroke="#2A2A2A" stroke-width="0.0712" stroke-linecap="round" stroke-miterlimit="10" d="M43.528,27.279
				c0,0-0.347,0.1-0.325,0.265c0.022,0.167-0.409,0.292-0.48,0.332c-0.41,0.226-5.261,1.775-4.864,2.087"/>
			<path fill="none" stroke="#2A2A2A" stroke-width="0.0712" stroke-linecap="round" stroke-miterlimit="10" d="M43.75,27.376
				c0,0-0.187,0.064-0.205,0.17c-0.021,0.114-0.291,0.221-0.39,0.297c-0.721,0.547-4.484,2.474-4.392,2.56"/>
			<g>
				<path fill="#2A2A2A" d="M43.975,27.475c0,0-1.022,0.917-2.074,1.799c-0.528,0.438-1.056,0.879-1.484,1.168
					c-0.211,0.147-0.393,0.264-0.526,0.334c-0.131,0.079-0.226,0.076-0.225,0.066c-0.002,0-0.003-0.002-0.003-0.003
					c0-0.002,0.005-0.002,0.007-0.002c-0.001,0.007,0.084,0.007,0.212-0.076c0.129-0.076,0.304-0.2,0.507-0.357
					c0.402-0.32,0.939-0.747,1.475-1.174c1.053-0.88,2.106-1.76,2.106-1.76c0.001-0.001,0.004-0.001,0.005,0
					C43.976,27.472,43.976,27.474,43.975,27.475z"/>
			</g>
		</g>
	</g>
	<g>
		<path fill="#2A2A2A" d="M40.228,20.217c0,0,0.664-0.813,1.163-0.76c0.5,0.054,0.558,0.164,0.833,0.124
			c0.276-0.04,0.485,0.275,0.365,0.377c-0.12,0.102-1.115,0.346-0.983,0.509C41.737,20.632,40.1,20.788,40.228,20.217z"/>
		<path fill="#2A2A2A" d="M39.998,26.384c0,0,0.839-0.749,1.328-0.57c0.489,0.178,0.524,0.313,0.81,0.334
			c0.285,0.022,0.427,0.422,0.285,0.507c-0.143,0.085-1.191,0.121-1.095,0.334C41.423,27.203,39.749,26.989,39.998,26.384z"/>
		<path fill="#2A2A2A" d="M39.324,24.123c0,0,0.839-0.749,1.328-0.57c0.489,0.179,0.524,0.313,0.81,0.335s0.428,0.421,0.285,0.506
			s-1.192,0.121-1.095,0.334C40.749,24.942,39.075,24.728,39.324,24.123z"/>
		<path fill="#2A2A2A" d="M37.002,26.203c0,0,0.181-0.041,0.376,0.175c0.194,0.217-0.124,0.715,0,0.822
			c0.123,0.107-0.341,0.537-0.661,0.625c-0.321,0.087-2.245-0.665-2.352-0.805c-0.106-0.14-0.203-0.644,0.291-0.624
			c0.494,0.021,1.42,0.086,1.491,0C36.219,26.31,37.002,26.203,37.002,26.203z"/>
		<path fill="#2A2A2A" d="M39.299,21.498c0.427,0.159,0.885,0.08,0.673,0.439c-0.211,0.361-0.959,0.389-0.924,0.625
			c0.036,0.235-0.926,0.335-0.926,0s0.569-0.762,0.712-0.87C38.977,21.586,39.299,21.498,39.299,21.498z"/>
		<path fill="#2A2A2A" d="M31.104,23.441c0.426,0.159,0.885,0.079,0.674,0.439c-0.212,0.361-0.96,0.389-0.924,0.624
			c0.036,0.235-0.926,0.335-0.926,0s0.57-0.762,0.712-0.869C30.782,23.529,31.104,23.441,31.104,23.441z"/>
		<path fill="#2A2A2A" d="M37.659,20.619c0.213,0.076,0.356,0.558,0,0.709c-0.356,0.15-1.013,0.392-1.13,0.609
			c-0.116,0.218-1.506,0.746-1.648,0.625s-0.071-0.878,0-0.962c0.071-0.085,1.648-0.581,1.648-0.581L37.659,20.619z"/>
		<path fill="#2A2A2A" d="M35.628,23.525c0,0,0.784-0.048,1.069,0.146c0.285,0.194-0.143,0.369,0.392,0.496
			c0.535,0.127,0.285,0.765,0,0.642c-0.285-0.124-0.329-0.017-0.751-0.195c-0.424-0.178-0.144-0.242-0.391-0.442
			C35.7,23.973,35.628,23.525,35.628,23.525z"/>
		<path fill="#2A2A2A" d="M26.613,28.883c0.323-0.172,0.644,0,0.644,0s0.071,0.184-0.178,0.291c-0.25,0.107-0.784,0.285-0.784,0.285
			s0.042-0.077,0.18-0.326C26.613,28.884,26.613,28.883,26.613,28.883z"/>
		<path fill="#2A2A2A" d="M27.977,25.951c0.323-0.172,0.645,0,0.645,0s0.071,0.184-0.178,0.291c-0.25,0.107-0.784,0.285-0.784,0.285
			s0.042-0.077,0.18-0.325C27.977,25.951,27.977,25.951,27.977,25.951z"/>
		<path fill="#2A2A2A" d="M28.682,28.002c0.427-0.004,0.712,0.316,0.712,0.459c0,0.142-0.605,0.142-0.712,0.214
			c-0.107,0.071-0.499-0.174-0.534-0.336c-0.036-0.162,0.356-0.336,0.356-0.336L28.682,28.002L28.682,28.002z"/>
		<path fill="#2A2A2A" d="M29.838,26.086c0.428-0.004,0.713,0.316,0.713,0.458c0,0.143-0.605,0.143-0.713,0.214
			c-0.106,0.071-0.499-0.174-0.534-0.336c-0.035-0.163,0.356-0.336,0.356-0.336H29.838z"/>
		<path fill="#2A2A2A" d="M33.083,25.163c0.428-0.004,0.712,0.316,0.712,0.459s-0.605,0.143-0.712,0.214
			c-0.107,0.071-0.499-0.174-0.535-0.336c-0.035-0.162,0.356-0.336,0.356-0.336L33.083,25.163L33.083,25.163z"/>
		<path fill="#2A2A2A" d="M38.219,25.163c0.428-0.004,0.712,0.316,0.712,0.459s-0.605,0.143-0.712,0.214
			c-0.106,0.071-0.499-0.174-0.534-0.336c-0.036-0.162,0.356-0.336,0.356-0.336L38.219,25.163L38.219,25.163z"/>
		<path fill="#2A2A2A" d="M30.641,27.263c0.463-0.048,1.496-0.372,1.638-0.192c0.143,0.18-0.285,0.249-0.356,0.642
			c-0.071,0.393-0.712,0.544-0.926,0.29C30.784,27.749,30.641,27.263,30.641,27.263z"/>
		<path fill="#2A2A2A" d="M32.813,23.216c0.463-0.048,1.497-0.372,1.639-0.193c0.143,0.18-0.285,0.25-0.356,0.643
			c-0.072,0.393-0.713,0.543-0.927,0.29S32.813,23.216,32.813,23.216z"/>
	</g>
	<g>
		<g>
			<path fill="#2A2A2A" d="M70.395,50.321l-2.399-2.025l-0.122-0.103l0.295-0.041l1.479-0.203v-1.491V31.411v-1.962L67.7,29.717
				l-2.905,0.4l-1.477,0.204l0,0l-0.461,0.064l-2.906,0.4l-1.477,0.203v1.335l-0.062-0.127l-0.54-1.125l-1.234,0.17l-2.861,0.395
				l-1.943,0.268l-2.905,0.4l-1.477,0.204l0,0l-0.46,0.063l-2.906,0.401l-1.053,0.145l-0.336,1.01l-0.091,0.275l-0.422-1.168
				l-1.372,0.189l-2.906,0.401l-1.477,0.203v1.49v15.045v1.963l1.944-0.27l0.682-0.094l-2.362,2.643l-0.435,0.484v0.652v10.334
				v0.799l0.608,0.512l2.402,2.021L39.85,70.1l0.753-0.104l4.34-0.6l0.619-0.086l0.418-0.463l2.287-2.541l2.102,1.771l0.582,0.49
				l0.753-0.104l4.34-0.597l0.624-0.087l0.417-0.468l1.354-1.518v1.738l1.942-0.27l2.905-0.398l1.479-0.202v-1.491v-4.133
				l2.357-0.325l0.627-0.087l0.42-0.472l2.398-2.706l0.434-0.486V56.32v-4.693v-0.794L70.395,50.321z M38.137,50.562V35.517
				l2.906-0.4l1.627,4.507l1.646-4.958l2.906-0.4v15.046l-2.906,0.401v-6.156l-1.646,4.958l-1.627-4.506v6.156L38.137,50.562z
				 M47.13,65.018l-2.422,2.689l-4.34,0.598l-2.402-2.024V55.943l2.402-2.688l2.093-0.286l0.557-0.077l1.69-0.233l2.422,2.022v2.394
				l-2.906,0.399v-1.082l-0.853-0.699l-1.666,0.229l-0.833,0.934v7.713l0.833,0.701l1.666-0.229l0.853-0.933v-1.084l2.906-0.4
				V65.018z M65.025,31.812l2.906-0.4v15.046l-2.906,0.401V31.812z M54.003,33.331l2.868-0.395l3.312,6.914v-7.371l2.903-0.401
				v15.046l-2.847,0.393l-3.332-6.931v7.39l-2.907,0.4L54.003,33.331L54.003,33.331z M49.16,33.999l2.906-0.401v15.046l-2.906,0.401
				V33.999z M58.211,63.49l-2.402,2.686l-4.34,0.6l-2.401-2.023V52.059l2.905-0.398v11.38l0.834,0.703l1.666-0.229l0.832-0.935V51.2
				l2.906-0.401V63.49z M69.292,56.32l-2.401,2.705l-3.836,0.529v5.621l-2.906,0.4V50.532l6.742-0.93l2.401,2.024V56.32z"/>
			<polygon fill="#2A2A2A" points="63.055,52.98 63.055,56.705 65.553,56.359 66.406,55.426 66.406,53.316 65.553,52.637 			"/>
		</g>
		<g>
			<polygon fill="#FFFFFF" points="42.67,39.624 41.043,35.117 38.137,35.517 38.137,50.562 41.043,50.164 41.043,44.008 
				42.67,48.514 44.317,43.557 44.317,49.712 47.223,49.312 47.223,34.265 44.317,34.666 			"/>
			<polygon fill="#FFFFFF" points="52.066,33.598 49.16,33.999 49.16,49.045 52.066,48.644 			"/>
			<polygon fill="#FFFFFF" points="56.91,40.587 60.242,47.518 63.089,47.125 63.089,32.079 60.184,32.479 60.184,39.85 
				56.871,32.936 54.003,33.331 54.003,48.377 56.91,47.977 			"/>
			<polygon fill="#FFFFFF" points="67.932,31.411 65.025,31.812 65.025,46.858 67.932,46.458 			"/>
			<polygon fill="#FFFFFF" points="40.368,53.258 37.966,55.943 37.966,66.279 40.368,68.305 44.708,67.707 47.13,65.018 
				47.13,62.623 44.224,63.023 44.224,64.107 43.371,65.04 41.705,65.27 40.872,64.568 40.872,56.855 41.705,55.924 43.371,55.693 
				44.224,56.395 44.224,57.475 47.13,57.075 47.13,54.682 44.708,52.659 			"/>
			<polygon fill="#FFFFFF" points="55.305,62.578 54.473,63.512 52.807,63.741 51.973,63.038 51.973,51.658 49.067,52.059 
				49.067,64.75 51.469,66.775 55.809,66.176 58.211,63.49 58.211,50.799 55.305,51.2 			"/>
			<path fill="#FFFFFF" d="M66.891,49.603l-6.742,0.93v15.046l2.906-0.399v-5.623l3.836-0.529l2.401-2.704V51.63L66.891,49.603z
				 M66.406,55.426l-0.854,0.936l-2.499,0.346v-3.725l2.499-0.346l0.854,0.682V55.426z"/>
		</g>
	</g>
	<path fill="none" d="M19.649,70.059c0,0,31.484,35.533,65.087-2.153"/>
</g>
<g>
	<path fill="#FFFFFF" d="M40.97,84.511l-3.039-1.034l2.168-6.367l1.206,0.41l-1.757,5.162l1.833,0.623L40.97,84.511z"/>
	<path fill="#FFFFFF" d="M43.753,78.29l1.234,0.315l-1.669,6.516l-1.233-0.314L43.753,78.29z"/>
	<path fill="#FFFFFF" d="M48.951,80.626l-1.165-0.19l-0.878,5.381l-1.258-0.207l0.879-5.381l-1.174-0.19l0.205-1.257l3.596,0.587
		L48.951,80.626z"/>
	<path fill="#FFFFFF" d="M52.391,86.23l-1.895-0.051l-1.023-1.08l0.125-4.619l1.082-1.022l1.894,0.051l1.032,1.082l-0.127,4.618
		L52.391,86.23z M52.223,84.588l0.094-3.455l-0.355-0.365l-0.729-0.021l-0.383,0.355l-0.095,3.444l0.363,0.376l0.729,0.02
		L52.223,84.588z"/>
	<path fill="#FFFFFF" d="M58.168,79.027l-0.654,6.854l-1.18,0.142l-2.264-6.5l1.289-0.156l1.175,3.35l0.335-3.531L58.168,79.027z"/>
	<path fill="#FFFFFF" d="M64.232,84.379l-3.869,1.048l-1.758-6.491l3.867-1.047l0.334,1.229l-2.64,0.715l0.38,1.402l1.229-0.334
		l0.334,1.229l-1.229,0.334l0.379,1.4l2.64-0.715L64.232,84.379z"/>
	<path fill="#FFFFFF" d="M68.454,82.717l-2.974,1.211l-2.535-6.229l1.18-0.481l2.057,5.05l1.793-0.729L68.454,82.717z"/>
</g>
</svg>
